<svg width="91" height="91" viewBox="0 0 91 91" fill="none" xmlns="http://www.w3.org/2000/svg">
<circle cx="45.5" cy="45.5" r="45.5" fill="#C75E6D"/>
<path d="M23 55.1619V26.0001C23 26.0001 38.618 26.0001 39.7162 26.0001C40.8143 26.0001 47.0371 27.4642 47.0371 34.4192C47.0371 41.3742 41.9125 43.4484 39.7162 43.4484C37.5199 43.4484 23.4881 43.4484 23.4881 43.4484" stroke="white" stroke-width="2.73906" stroke-linecap="round"/>
<path d="M27.8805 38.0796V64.191C27.8805 64.191 36.7877 64.191 40.5701 64.191C44.3526 64.191 49.2333 61.2918 49.2333 54.3077C49.2333 47.3236 43.5524 43.6193 39.106 43.6193C34.6595 43.6193 28.2918 43.6193 28.2918 43.6193" stroke="white" stroke-width="2.73906" stroke-linecap="round"/>
<path d="M68.8781 30.6366C64.4855 25.5424 55.7003 25.0793 48.6234 27.1633" stroke="white" stroke-width="2.73906" stroke-linecap="round"/>
<path d="M50.4535 63.825C58.3845 64.8011 64.4853 63.825 68.9999 59.5544V47.8409H54.724" stroke="white" stroke-width="2.73906" stroke-linecap="round"/>
<path d="M68.8791 42.9602H54.9672" stroke="white" stroke-width="2.73906" stroke-linecap="round"/>
<circle cx="46" cy="45" r="40" stroke="white" stroke-width="2"/>
</svg>
