<svg width="180" height="107" viewBox="0 0 180 107" fill="none" xmlns="http://www.w3.org/2000/svg">
<path d="M55.3989 90.8966C51.8599 86.9879 49.009 82.527 46.1491 78.1166C44.6621 75.8263 43.1481 73.5541 41.6233 71.2871C39.9664 68.8201 37.9097 66.7509 35.6856 64.7905C33.4535 62.8246 31.0931 61.0163 28.6177 59.3658C27.4063 58.5584 26.1757 57.7773 24.9395 57.0094C24.6048 56.8003 24.2647 56.5937 23.9245 56.3925C22.3745 56.2747 20.821 56.1969 19.2657 56.2177C17.6996 56.2383 16.1138 56.3199 14.5575 56.1086C13.9643 56.0279 13.3692 55.9071 12.833 55.6301C10.6314 55.5558 8.43479 55.3563 6.2442 55.1222C4.71904 54.9596 3.19417 54.7809 1.669 54.6183C0.74009 54.5178 0.757528 53.0538 1.6971 53.1546C5.97179 53.6127 10.2058 54.1074 14.4699 54.1412C14.8559 54.042 15.2419 53.9427 15.6227 53.8353C16.4996 53.5908 17.2535 53.0798 18.0459 52.6496C18.8222 52.2244 19.5723 51.7747 20.1718 51.1115C20.6624 50.5688 21.0059 49.9006 21.2564 49.2172C21.9319 47.3739 22.0944 45.4379 22.3476 43.5064C22.5978 41.5882 23.0121 39.7345 23.9279 38.0157C27.3838 31.5288 35.6301 30.3109 42.2754 30.6545C44.4976 30.7692 46.7133 31.0838 48.9157 31.3981C51.3256 31.7404 53.7261 32.1546 56.0829 32.7626C56.8658 32.9643 56.6841 34.2331 55.8636 34.1827C55.536 34.1604 55.2356 34.2479 54.9193 34.3299C54.552 34.4269 54.1825 34.4998 53.8103 34.578C52.9427 34.7587 52.0825 34.9662 51.2248 35.1845C49.5765 35.6009 47.9486 36.0658 46.348 36.6351C44.7877 37.192 43.2606 37.8268 41.7512 38.5099C40.648 39.0115 39.5311 39.5342 38.6688 40.4085C37.6515 41.4398 37.046 42.8311 36.4661 44.1376C35.8446 45.5339 35.2914 46.9769 34.3874 48.2211C33.5764 49.3391 32.5766 50.2934 31.5064 51.161C30.8995 51.6508 30.2747 52.1029 29.6189 52.5037C32.3189 52.0461 35.0141 51.5564 37.7033 51.104C41.99 50.3808 46.2722 49.6175 50.5637 48.9184C50.6081 48.6899 50.8132 48.5658 51.0405 48.5382C53.5745 48.2507 56.0979 47.8164 58.5844 47.2294C58.9122 47.0996 59.2375 46.9699 59.5624 46.8561C60.8352 46.4084 62.2055 46.3014 63.4632 45.8081C64.6457 45.3454 65.4879 44.404 66.4002 43.5627C67.4103 42.6326 68.5983 41.8766 69.7126 41.0765C70.8701 40.2452 72.1411 39.6135 73.3556 38.874C74.5511 38.1475 75.5051 37.2163 76.4869 36.2296C77.485 35.2272 78.6315 34.4144 79.6767 33.461C80.7517 32.4787 81.8286 31.5419 83.0366 30.7196C84.1824 29.9414 85.3774 29.2416 86.5518 28.5066C87.8179 27.7121 89.04 26.8527 90.2569 25.9826C92.6395 24.276 95.0267 22.6042 97.5879 21.1757C100.125 19.7602 102.78 18.4482 105.512 17.4498C108.227 16.4564 111.101 15.9968 113.963 15.665C115.503 15.4865 117.052 15.4096 118.602 15.37C120.014 15.3331 121.44 15.3711 122.847 15.2701C122.922 15.2662 122.994 15.257 123.067 15.2503C123.075 15.2505 123.091 15.2481 123.104 15.2457C123.125 15.2435 123.147 15.2412 123.168 15.239C123.371 15.2135 123.574 15.1881 123.778 15.16C124.272 15.0948 124.767 15.0323 125.264 14.9831C126.181 14.894 127.153 14.8247 128.058 15.0501C128.435 15.1454 128.786 15.3175 129.069 15.5896C129.486 15.9897 129.21 16.6085 128.732 16.7754C127.427 17.2304 126.036 17.4144 124.749 17.9258C123.483 18.4296 122.295 19.1856 121.173 19.9536C118.897 21.5155 116.804 23.321 114.507 24.8585C112.151 26.4323 109.704 27.8763 107.242 29.2746C104.934 30.5852 102.554 31.7584 100.084 32.7299C97.555 33.7242 94.9608 34.3705 92.3216 34.9973C89.535 35.6613 86.7602 36.4028 84.0813 37.4289C78.8283 39.4431 74.1781 42.7118 68.9991 44.8955C67.7085 45.4388 66.3999 45.9391 65.0763 46.3938C64.3984 46.8316 63.6412 47.0944 62.8641 47.2875C66.4333 46.98 70.0157 46.8221 73.6005 46.8135C76.6252 46.8076 79.6452 46.9109 82.6706 46.8676C85.117 46.8346 87.5666 46.7749 90.0117 46.8139C90.0724 46.7084 90.1832 46.6331 90.351 46.6444C92.0826 46.7496 93.815 46.9562 95.5511 46.9682C96.7696 46.8503 97.988 46.7376 99.2043 46.593C99.3006 46.5815 99.383 46.5964 99.4545 46.6218C100.418 46.4589 101.374 46.2559 102.323 46.018C102.502 45.9708 102.682 45.9209 102.862 45.871C103.819 45.6067 104.781 45.3424 105.706 44.9788C106.152 44.8033 106.593 44.6144 107.047 44.4524C107.321 44.3563 107.563 44.241 107.833 44.2141C107.857 44.2039 107.879 44.1937 107.903 44.1835C110.457 42.9789 112.862 41.4888 115.158 39.8526C120.242 36.2295 124.662 31.6174 130.425 29.0315C131.926 28.3562 133.409 27.6779 134.864 26.903C136.257 26.1589 137.669 25.5513 139.157 25.0251C139.482 24.9086 139.809 24.7975 140.137 24.6838C140.254 24.566 140.423 24.5159 140.596 24.5246C141.162 24.3274 141.726 24.1302 142.293 23.9331C142.765 23.6407 143.204 23.3024 143.635 22.9533C144.729 22.0648 145.873 21.2466 146.913 20.293C148.069 19.235 149.14 18.09 150.249 16.9831C151.389 15.8448 152.611 14.7987 153.735 13.6467C155.923 11.4083 157.879 8.95737 160.059 6.70811C162.184 4.51116 164.485 2.48827 167.437 1.52608C169.104 0.981974 170.863 0.765038 172.596 0.547582C174.577 0.297563 176.574 0.178547 178.53 0.688185C179.185 0.860803 179.167 1.69261 178.678 2.02728C177.613 2.75631 176.253 2.71954 175.12 3.27389C173.755 3.93848 172.563 4.85979 171.442 5.87579C169.04 8.05677 166.97 10.5615 164.741 12.9138C162.647 15.1247 160.35 17.081 157.777 18.7146C155.336 20.2654 152.722 21.5195 150.05 22.615C147.308 23.7386 144.508 24.7091 141.71 25.6822C140.303 26.17 138.852 26.6035 137.493 27.2175C136.029 27.8802 134.653 28.718 133.192 29.3914C131.693 30.0828 130.153 30.688 128.718 31.5139C127.321 32.3193 125.986 33.2271 124.698 34.1973C122.224 36.0595 119.902 38.1086 117.423 39.9654C112.823 43.4138 107.798 46.3099 102.183 47.725C101.701 47.8464 101.213 47.9544 100.726 48.0544C103.435 48.6506 106.106 49.4353 108.755 50.3663C109.804 50.7332 110.848 51.124 111.886 51.52C114.121 51.6162 116.347 51.2962 118.522 50.8019C122.99 49.7835 127.296 47.9378 131.934 47.8134C131.995 47.8119 132.059 47.8132 132.121 47.8117C131.996 47.6386 132.036 47.33 132.291 47.2815C132.62 47.2185 132.875 47.2847 133.174 47.4185C133.948 46.9346 134.767 46.5262 135.619 46.1905C136.925 45.6742 138.249 45.1848 139.589 44.7598C142.358 43.8821 145.22 43.1636 148.126 42.966C149.512 42.8726 150.909 42.8994 152.26 43.2587C153.584 43.6095 154.839 44.2098 156.046 44.8517C158.361 46.0857 160.578 47.4539 163.119 48.1934C164.562 48.6132 166.031 48.8094 167.529 48.8569C168.368 48.8837 169.219 48.8867 170.056 48.7934C170.684 48.7227 171.358 48.4663 171.974 48.7369C172.273 48.868 172.444 49.1193 172.363 49.4538C172.259 49.8892 171.844 50.1346 171.49 50.3519C171.058 50.6156 170.67 50.9469 170.254 51.235C169.365 51.8554 168.38 52.3139 167.375 52.7133C165.402 53.4943 163.315 53.9663 161.216 54.2434C156.459 54.8695 151.598 54.3761 146.993 53.0635C145.85 52.7375 144.724 52.3531 143.62 51.9025C142.567 51.4716 141.553 50.9587 140.513 50.4933C139.485 50.0335 138.43 49.6878 137.316 49.4904C136.221 49.296 135.105 49.2319 133.996 49.1626C131.644 49.0161 129.367 49.2284 127.074 49.7632C124.81 50.2905 122.604 51.0216 120.347 51.5784C118.458 52.0462 116.531 52.4173 114.589 52.5614C115.391 52.8729 116.193 53.1843 116.998 53.4905C119.588 54.4764 122.271 55.2801 124.702 56.639C126.992 57.9178 128.886 59.7465 130.946 61.3411C132.05 62.1971 133.199 62.9286 134.509 63.4285C135.748 63.9004 137.039 64.2212 138.315 64.5738C143.886 66.1104 148.798 69.5173 154.455 70.7568C159.698 71.9056 165.153 70.042 170.026 68.2392C171.224 67.7954 172.425 67.3517 173.626 66.9107C174.289 66.6674 174.753 67.8045 174.089 68.0718C169.267 70.0276 164.359 72.1258 159.108 72.5051C153.371 72.9204 148.338 70.1512 143.252 67.9092C141.731 67.2399 140.188 66.7275 138.626 66.2521C139.134 66.4992 139.633 66.7648 140.113 67.0621C141.373 67.8411 142.41 68.8319 143.326 69.991C144.397 71.3451 145.372 72.7748 146.391 74.168C147.331 75.4556 148.11 76.8601 148.751 78.3207C149.436 79.8808 149.971 81.4621 150.155 83.1619C150.331 84.8003 150.278 86.4529 150.436 88.0936C150.585 89.6301 150.981 91.094 151.732 92.4473C152.471 93.7818 153.43 94.9604 154.53 96.0137C155.769 97.2004 157.177 98.1929 158.67 99.0324C159.404 99.4439 160.16 99.8132 160.907 100.193C161.652 100.57 162.431 100.964 163.27 101.065C163.576 101.103 163.836 101.316 163.829 101.647C163.824 101.943 163.557 102.231 163.248 102.206C161.258 102.048 159.261 102.023 157.285 101.721C155.559 101.458 153.855 101.052 152.201 100.479C149.019 99.3806 145.944 97.7025 143.689 95.1574C141.553 92.748 140.252 89.8104 139.195 86.8056C138.552 84.9796 137.972 83.1307 137.555 81.2397C137.135 79.338 136.935 77.4137 136.871 75.4681C136.804 73.3811 136.794 71.2819 136.476 69.2114C136.346 68.358 136.22 67.4114 135.7 66.6947C135.284 66.1212 134.72 65.657 134.149 65.2299C133.83 65.2025 133.512 64.951 133.532 64.57C131.758 63.7598 130.214 62.6526 128.654 61.3637C126.48 59.567 124.338 57.9176 121.716 56.819C119.086 55.715 116.367 54.8093 113.707 53.7767C112.449 53.2885 111.183 52.8027 109.91 52.3329C108.772 52.1217 107.655 51.8095 106.54 51.4173C105.991 51.2255 105.449 51.0203 104.903 50.8151C104.755 50.759 104.661 50.6585 104.61 50.5401C102.297 49.8396 99.9533 49.2585 97.5708 48.8794C97.2882 48.8713 97.003 48.8658 96.7204 48.8577C96.6777 48.8569 96.6379 48.8455 96.5982 48.8287C96.1977 48.8557 95.7946 48.8719 95.3943 48.8829C95.3161 48.9268 95.225 48.949 95.1187 48.931C95.0469 48.9189 94.9724 48.9068 94.9007 48.8948C94.3057 48.902 93.7086 48.8879 93.1117 48.8578C92.8932 48.8456 92.7626 48.7044 92.7204 48.5409C92.6885 48.5349 92.6592 48.5317 92.6273 48.5284C91.647 48.4642 90.6671 48.3788 89.6865 48.3306C89.2042 48.3053 88.7191 48.2907 88.2339 48.2787C84.9693 48.2774 81.6997 48.3986 78.4413 48.3494C72.378 48.2543 66.3459 48.3386 60.3108 48.9935C60.3001 48.996 60.2894 48.9958 60.2787 48.9982C60.3506 49.0049 60.4199 49.0063 60.4918 49.013C63.3465 49.2492 66.1576 49.8126 68.8938 50.6599C71.6884 51.5271 74.3867 52.6831 77.0466 53.8944C79.7144 55.1111 82.3513 56.4127 84.9331 57.8012C87.441 59.1509 89.8249 60.7089 92.0198 62.5274C94.2173 64.3459 96.2156 66.3954 98.4186 68.206C100.561 69.9675 102.937 71.3893 105.432 72.5921C108.008 73.8338 110.68 74.864 113.276 76.066C115.777 77.2236 118.214 78.5319 120.466 80.1248C121.513 80.8651 122.522 81.6739 123.408 82.6031C124.347 83.5866 125.083 84.6996 125.768 85.8677C126.114 86.4584 126.462 87.0439 126.86 87.601C127.226 88.1148 126.596 88.7188 126.073 88.5834C124.836 88.2662 123.702 87.5777 122.511 87.1307C121.179 86.6304 119.833 86.1725 118.489 85.7119C115.837 84.8048 113.207 83.8448 110.596 82.8239C105.36 80.771 100.18 78.5858 94.9463 76.5249C92.3998 75.5212 89.8021 74.5405 87.4113 73.2037C85.1683 71.9497 83.1071 70.3898 81.1738 68.7017C79.188 66.97 77.3385 65.0888 75.4207 63.2863C73.5239 61.5029 71.4905 59.8875 69.5064 58.2064C68.517 57.366 67.5168 56.5333 66.4564 55.7821C65.3697 55.0091 64.2201 54.3149 63.0813 53.6182C60.7904 52.2167 58.3728 50.8873 55.8322 49.9877C55.7527 49.9595 55.668 49.9259 55.5833 49.8949C54.9701 49.8832 54.3541 49.8767 53.7408 49.8676C49.8406 50.4648 45.9516 51.1716 42.0687 51.8412C36.2537 52.8445 30.4332 53.8503 24.6017 54.7412C24.8881 54.9654 25.2326 55.084 25.5911 55.1629C27.8088 55.3735 30.0162 55.7066 32.1765 56.2655C35.2101 57.0492 38.1061 58.3264 40.8567 59.8168C43.5254 61.263 46.037 62.9782 48.3736 64.9168C50.8282 66.9563 53.0162 69.2707 54.941 71.8175C55.9087 73.0949 56.6847 74.4888 57.4473 75.893C58.2097 77.2999 59.0262 78.6759 59.8344 80.0596C61.4509 82.8272 63.0642 85.624 65.0697 88.1377C65.9474 89.2374 66.9117 90.2748 68.0015 91.1652C69.107 92.0666 70.3417 92.7731 71.6262 93.3845C74.3962 94.6993 77.2777 95.7601 79.898 97.3707C80.9392 98.0095 81.8955 98.7693 82.6125 99.7673C83.4308 100.906 83.7258 102.21 83.9023 103.577C83.9533 103.972 84.0044 104.368 84.109 104.754C84.211 105.138 84.3402 105.495 84.2844 105.899C84.2007 106.511 83.5467 106.816 83.067 106.377C81.0434 104.533 78.5155 103.527 76.0565 102.41C73.6186 101.304 71.0649 100.532 68.537 99.6704C65.9879 98.8 63.4414 97.7936 61.2447 96.2071C59.1195 94.654 57.1697 92.8509 55.3989 90.8966ZM74.5241 40.9395C76.9774 39.5756 79.4103 38.1687 81.9742 37.0177C84.5757 35.8514 87.2916 34.9807 90.0449 34.2468C92.707 33.5377 95.4036 32.9787 98.0082 32.0686C103.097 30.2939 107.807 27.4931 112.328 24.598C113.532 23.8263 114.721 23.025 115.873 22.1776C116.972 21.3692 118.026 20.5039 119.122 19.6901C120.215 18.8763 121.337 18.0977 122.528 17.4351C123.232 17.0459 123.948 16.7315 124.686 16.4683C124.314 16.5145 123.943 16.5634 123.563 16.6095C122.406 16.7526 121.235 16.7381 120.069 16.7611C118.556 16.7907 117.041 16.823 115.531 16.9407C112.692 17.1582 109.803 17.6015 107.077 18.4427C104.359 19.2814 101.739 20.5886 99.2377 21.9302C96.6776 23.3027 94.268 24.8861 91.9098 26.5771C90.7172 27.4317 89.5271 28.2944 88.3059 29.1058C87.1307 29.886 85.9116 30.5934 84.7234 31.3521C83.5597 32.0926 82.4562 32.8902 81.438 33.8255C80.8896 34.3271 80.349 34.8394 79.7797 35.3166C79.2485 35.7598 78.6833 36.1597 78.1728 36.6327C77.6705 37.0978 77.1969 37.5901 76.7078 38.0635C78.818 36.6504 80.9981 35.3453 83.1394 33.9808C85.6451 32.3886 88.1945 30.88 90.7597 29.3822C92.0329 28.6385 93.3164 27.9137 94.6411 27.2643C95.9524 26.6201 97.3066 26.1019 98.6767 25.5922C101.892 24.3896 105.091 23.0881 108.388 22.1246C108.787 22.0069 108.92 22.6015 108.544 22.741C105.673 23.7928 102.794 24.823 99.9297 25.8989C98.5112 26.4318 97.08 26.9298 95.7049 27.5648C94.3863 28.1743 93.1087 28.8699 91.8493 29.5925C89.2846 31.0609 86.7327 32.5589 84.2352 34.1379C82.9419 34.9559 81.6538 35.7847 80.3527 36.5918C79.0813 37.3836 77.8049 38.1539 76.5697 39.005C75.2506 39.9159 73.9675 40.8994 72.5732 41.6968C71.4244 42.3522 70.2064 42.8623 68.9579 43.2944C68.6526 43.4966 68.35 43.6988 68.0525 43.9145C67.836 44.073 67.6274 44.2424 67.424 44.4172C69.8676 43.4212 72.2137 42.2234 74.5241 40.9395ZM147.509 22.0568C152.923 19.9923 158.174 17.354 162.352 13.2601C164.652 11.0078 166.69 8.51041 168.958 6.23084C170.078 5.1028 171.251 4.01844 172.552 3.09923C173.16 2.66817 173.8 2.28303 174.473 1.96255C174.607 1.89846 174.742 1.84237 174.879 1.78899C174.262 1.81449 173.645 1.87198 173.035 1.94829C171.477 2.14241 169.894 2.33608 168.379 2.76307C167.03 3.14258 165.757 3.7396 164.618 4.56056C163.35 5.47506 162.211 6.59207 161.125 7.71011C158.946 9.95671 156.989 12.4076 154.801 14.6487C153.694 15.785 152.487 16.818 151.364 17.938C150.687 18.6132 150.023 19.2992 149.349 19.9744C150.527 19.3196 151.724 18.6677 152.827 17.8994C154.076 17.0272 155.202 15.9927 156.35 14.9932C157.584 13.9153 158.839 12.8565 160.094 11.8031C160.742 11.2581 161.4 10.74 162.087 10.2437C162.791 9.73447 163.494 9.23053 164.111 8.61293C164.359 8.36696 164.695 8.73884 164.48 8.99608C163.486 10.1772 162.09 10.9506 160.908 11.9254C159.602 13.0019 158.311 14.0973 157.029 15.2009C155.892 16.1793 154.785 17.1929 153.578 18.0819C152.298 19.0255 150.881 19.7638 149.503 20.5481C148.923 20.8784 148.338 21.2006 147.746 21.5039C147.428 21.7859 147.106 22.0597 146.775 22.3254C147.014 22.2367 147.261 22.1481 147.509 22.0568ZM144.842 50.9231C149.195 52.5643 153.921 53.3992 158.576 53.2192C160.706 53.1374 162.841 52.8317 164.9 52.2764C165.884 52.0099 166.853 51.6871 167.784 51.2649C168.599 50.8938 169.336 50.4332 170.06 49.9297C169.347 50.0013 168.624 50.0221 167.906 50.019C166.554 50.0144 165.207 49.9032 163.881 49.627C161.339 49.0981 159.016 47.9626 156.762 46.7138C155.609 46.0755 154.451 45.4265 153.219 44.9521C151.983 44.475 150.753 44.246 149.427 44.2392C146.619 44.2253 143.828 44.8518 141.133 45.5949C139.612 46.0138 138.128 46.5267 136.638 47.0342C135.988 47.2565 135.348 47.5082 134.727 47.795C134.918 47.844 135.106 47.8877 135.301 47.9101C135.694 47.955 136.092 47.9386 136.485 47.9008C137.284 47.8255 138.074 47.6513 138.877 47.6453C139.725 47.6376 140.566 47.6298 141.415 47.574C142.251 47.5181 143.089 47.4568 143.929 47.5023C144.789 47.5481 145.602 47.7531 146.435 47.9505C147.285 48.1535 148.14 48.3246 148.984 48.5462C149.374 48.647 149.764 48.7585 150.146 48.8859C150.567 49.0273 150.956 49.2215 151.366 49.3894C153.232 50.148 155.33 50.167 157.316 50.0851C157.749 50.0667 157.736 50.7386 157.303 50.757C156.399 50.7956 155.495 50.7889 154.591 50.7316C153.72 50.6748 152.855 50.5969 152.017 50.3461C151.211 50.1039 150.466 49.7082 149.66 49.4633C148.846 49.2157 148.012 49.0316 147.181 48.8476C146.339 48.6608 145.496 48.3965 144.639 48.2841C143.804 48.1747 142.955 48.1957 142.117 48.249C141.27 48.3021 140.426 48.3819 139.578 48.3843C139.25 48.386 138.924 48.3744 138.599 48.3868C138.633 48.3955 138.668 48.4015 138.702 48.4101C140.855 48.9476 142.782 50.1448 144.842 50.9231ZM137.482 67.505C137.923 69.2552 138.032 71.1109 138.088 72.9097C138.149 74.8552 138.106 76.8094 138.363 78.7427C138.612 80.6199 139.065 82.4663 139.619 84.2746C140.568 87.376 141.668 90.5044 143.561 93.1706C145.444 95.8233 148.145 97.6755 151.127 98.9089C152.948 99.6614 154.858 100.205 156.796 100.554C157.729 100.721 158.668 100.825 159.611 100.896C159.381 100.777 159.151 100.661 158.927 100.547C157.529 99.8507 156.195 99.0356 154.974 98.0599C152.541 96.1195 150.401 93.5473 149.598 90.486C148.758 87.2772 149.464 83.8688 148.377 80.714C147.862 79.2185 147.213 77.7631 146.42 76.3929C145.584 74.9446 144.55 73.6045 143.582 72.2417C142.574 70.8247 141.542 69.4153 140.105 68.4062C139.979 68.3158 139.847 68.2359 139.716 68.1534C139.788 68.4001 139.858 68.6468 139.96 68.8862C140.154 69.3327 140.357 69.7766 140.54 70.2309C140.901 71.1233 141.177 72.0328 141.354 72.9804C141.7 74.8407 141.778 76.7386 142.239 78.5798C142.687 80.3647 143.372 82.0742 144.18 83.722C145.089 85.5798 146.14 87.3603 147.159 89.1589C147.376 89.5418 146.78 89.8718 146.563 89.4915C144.739 86.2906 142.81 83.1036 141.764 79.5415C141.216 77.68 141.06 75.7806 140.771 73.8707C140.627 72.9158 140.421 71.973 140.089 71.0651C139.767 70.1814 139.298 69.3482 139.038 68.4417C138.938 68.0957 138.831 67.8003 138.645 67.522C138.188 67.2785 137.72 67.0535 137.247 66.8417C137.347 67.0517 137.423 67.2718 137.482 67.505ZM61.634 51.0646C63.9777 52.3552 66.3216 53.7711 68.4316 55.4253C69.48 56.2482 70.4901 57.1185 71.5085 57.9808C72.5006 58.8187 73.5254 59.6172 74.5039 60.4708C76.4897 62.1999 78.3367 64.0811 80.2489 65.8915C82.1272 67.6692 84.0844 69.3631 86.2413 70.7967C88.4613 72.2743 90.868 73.342 93.3291 74.3468C95.9306 75.4103 98.5544 76.4182 101.156 77.4843C103.776 78.5561 106.387 79.6518 109.01 80.7157C111.609 81.7711 114.222 82.7975 116.865 83.7364C119.451 84.6555 122.1 85.4612 124.612 86.5736C124.259 85.9747 123.905 85.3731 123.491 84.8131C122.771 83.8391 121.889 82.974 120.946 82.2144C118.868 80.5422 116.496 79.2138 114.116 78.0292C109.117 75.5461 103.722 73.8475 99.1798 70.517C96.923 68.8654 94.9364 66.8989 92.868 65.0242C90.7944 63.144 88.5996 61.4589 86.2002 60.0152C83.7455 58.5358 81.1589 57.2566 78.5825 56.0016C75.9823 54.7328 73.3383 53.5271 70.6266 52.5122C68.005 51.5284 65.2858 50.7613 62.5117 50.3587C62.4213 50.3463 62.3308 50.3339 62.243 50.3215C62.6275 50.5796 63.0204 50.8139 63.4462 51.0008C64.1577 51.3131 64.8636 51.6361 65.564 51.9696C68.4265 53.3288 71.1976 54.8623 73.9466 56.4353C76.656 57.9863 79.3349 59.598 81.8847 61.4073C84.4529 63.2276 86.7886 65.3475 89.3377 67.1942C92.2918 69.3339 95.4076 71.2528 98.5431 73.1133C98.9124 73.3311 98.5654 73.9006 98.1961 73.6828C95.4322 72.0534 92.696 70.3686 90.0558 68.5469C87.4709 66.7662 85.1265 64.6782 82.6071 62.8135C80.1246 60.9761 77.5075 59.3389 74.8408 57.7861C72.1451 56.2167 69.4247 54.6842 66.6321 53.2943C65.821 52.892 65.0017 52.5002 64.1769 52.1217C63.4921 51.8071 62.7824 51.5401 62.1448 51.1331C61.6942 50.8444 61.2397 50.4836 60.7687 50.1492C60.3987 50.1128 60.0259 50.0816 59.6557 50.0531C60.319 50.3726 60.9821 50.7054 61.634 51.0646ZM24.7418 53.2796C25.4277 53.1167 26.1063 52.919 26.7725 52.6704C28.1076 52.176 29.3428 51.4636 30.4561 50.5754C31.5152 49.7289 32.5463 48.8125 33.3515 47.7158C35.1564 45.2593 35.5835 42.0429 37.5941 39.705C38.3907 38.7788 39.4376 38.1508 40.5253 37.6249C42.0194 36.9041 43.5469 36.2506 45.0947 35.6509C46.8736 34.9622 48.6849 34.3916 50.5293 33.9016C51.1566 33.7349 51.7865 33.5763 52.4161 33.4257C51.4329 33.2388 50.4439 33.0731 49.4518 32.926C47.4624 32.6318 45.4568 32.3479 43.4515 32.1867C39.8485 31.8935 36.1228 32.014 32.6433 33.0621C29.6387 33.9672 26.9059 35.7204 25.327 38.496C23.414 41.8599 23.9615 45.8525 22.7273 49.4269C22.4365 50.2668 22.0555 51.0809 21.5033 51.7798C21.4349 51.8665 21.3614 51.9478 21.2877 52.0317C22.2759 51.4052 23.2071 50.6923 24.0627 49.8872C25.4861 48.549 26.62 47.0024 27.5833 45.3086C28.5687 43.5779 29.5005 41.8594 30.8204 40.3511C32.0476 38.9478 33.4476 37.7104 34.9568 36.6218C36.6608 35.3903 38.5194 34.2978 40.4658 33.5003C40.8287 33.3499 41.1391 33.8546 40.7726 34.0503C39.1234 34.9308 37.4667 35.7818 35.9182 36.8377C34.3642 37.8987 32.9216 39.1272 31.6494 40.5164C30.9901 41.2372 30.386 41.9991 29.8581 42.8238C29.3163 43.6749 28.8405 44.5646 28.3435 45.4432C27.3991 47.1214 26.3129 48.6849 24.9452 50.0482C23.6808 51.3068 22.2333 52.3779 20.675 53.2442C21.0592 53.3769 21.4379 53.5175 21.8109 53.6767C22.7921 53.5542 23.7681 53.4236 24.7418 53.2796ZM63.8513 96.1665C65.0046 96.8074 66.2189 97.3268 67.4529 97.7906C69.9924 98.7435 72.6164 99.466 75.122 100.517C76.3788 101.043 77.6103 101.634 78.8449 102.21C80.0768 102.783 81.3134 103.388 82.4568 104.125C82.4963 104.153 82.5358 104.18 82.578 104.205C82.5521 104.023 82.5289 103.841 82.5031 103.659C82.4096 102.969 82.295 102.274 82.0247 101.626C81.6064 100.631 80.8831 99.8221 80.0177 99.192C77.6872 97.491 74.9175 96.4403 72.302 95.2779C70.8924 94.6507 69.4912 94.005 68.2172 93.1244C67.088 92.3452 66.052 91.4291 65.1246 90.4192C63.0084 88.1168 61.3319 85.4174 59.7404 82.7357C58.9162 81.3463 58.1028 79.9517 57.2894 78.5598C56.5147 77.2354 55.8343 75.8567 55.0462 74.5373C54.2271 73.1613 53.2402 71.9155 52.2047 70.6954C51.1693 69.4753 50.0659 68.3179 48.881 67.2416C46.6895 65.2498 44.3016 63.4863 41.7623 61.9653C39.1756 60.414 36.4199 59.0515 33.5439 58.1188C32.6825 57.8382 31.8095 57.6027 30.9305 57.3992C30.9569 57.4157 30.986 57.4296 31.0123 57.4461C31.7274 57.8492 32.4673 58.2101 33.1962 58.5842C33.9093 58.95 34.6195 59.329 35.2912 59.7687C36.0156 60.244 36.685 60.8009 37.3519 61.3498C38.6988 62.4612 39.9507 63.6642 41.1886 64.8962C43.6592 67.3547 46.0509 69.8945 48.3015 72.5595C49.4412 73.907 50.5213 75.3013 51.6421 76.6617C52.7627 78.0275 53.9051 79.3724 55.0502 80.7199C57.5958 83.716 60.1387 86.7174 62.4703 89.8854C62.7199 90.2236 62.1457 90.538 61.8987 90.2052C59.8008 87.3697 57.5214 84.6748 55.2338 81.993C54.1017 80.6644 52.9642 79.341 51.8457 78.0019C50.7115 76.6465 49.6206 75.26 48.4945 73.8995C46.284 71.2298 43.9298 68.6828 41.4885 66.2222C40.264 64.9878 39.0341 63.7533 37.7198 62.6105C36.4396 61.4977 35.1288 60.4483 33.6348 59.6355C32.8271 59.1959 31.9946 58.7985 31.1813 58.3668C30.3523 57.9268 29.5536 57.4367 28.7217 57.002C28.6768 56.9798 28.6319 56.955 28.587 56.9328C28.1404 56.8575 27.6936 56.7902 27.244 56.7283C27.2968 56.7613 27.3521 56.797 27.4048 56.83C29.9343 58.4442 32.3846 60.1529 34.7114 62.0486C37.0276 63.9334 39.3175 65.9404 41.2147 68.26C42.158 69.4143 42.9662 70.6674 43.7851 71.9127C44.5315 73.0446 45.2995 74.1608 46.046 75.2927C48.9328 79.6903 51.6705 84.2131 55.0359 88.2704C56.7251 90.3086 58.5713 92.2244 60.6141 93.9066C61.6274 94.7529 62.6981 95.5256 63.8513 96.1665Z" fill="white" fill-opacity="0.3"/>
</svg>
