<svg width="175" height="97" viewBox="0 0 175 97" fill="none" xmlns="http://www.w3.org/2000/svg">
<path d="M50.3989 80.8966C46.8599 76.9879 44.009 72.527 41.1491 68.1166C39.6621 65.8263 38.1481 63.5541 36.6233 61.2871C34.9664 58.8201 32.9097 56.7509 30.6856 54.7905C28.4535 52.8246 26.0931 51.0163 23.6177 49.3658C22.4063 48.5584 21.1757 47.7773 19.9395 47.0094C19.6048 46.8003 19.2647 46.5937 18.9245 46.3925C17.3745 46.2747 15.821 46.1969 14.2656 46.2177C12.6996 46.2383 11.1138 46.3199 9.55752 46.1087C8.96429 46.0279 8.36916 45.9071 7.83304 45.6301C5.63138 45.5559 3.43479 45.3563 1.2442 45.1222C-0.280968 44.9596 -1.80583 44.7809 -3.331 44.6183C-4.25991 44.5178 -4.24248 43.0538 -3.3029 43.1546C0.971791 43.6127 5.20576 44.1074 9.46992 44.1413C9.8559 44.042 10.2419 43.9427 10.6227 43.8353C11.4996 43.5908 12.2535 43.0798 13.0459 42.6496C13.8222 42.2244 14.5723 41.7748 15.1718 41.1115C15.6624 40.5688 16.0059 39.9006 16.2564 39.2173C16.9319 37.3739 17.0944 35.438 17.3476 33.5064C17.5978 31.5882 18.0121 29.7345 18.9279 28.0157C22.3838 21.5288 30.6301 20.3109 37.2754 20.6545C39.4976 20.7692 41.7133 21.0838 43.9157 21.3981C46.3256 21.7404 48.7261 22.1546 51.0829 22.7626C51.8658 22.9643 51.6841 24.2331 50.8636 24.1827C50.536 24.1604 50.2356 24.248 49.9193 24.3299C49.552 24.4269 49.1825 24.4998 48.8103 24.578C47.9427 24.7587 47.0825 24.9662 46.2248 25.1845C44.5765 25.6009 42.9486 26.0658 41.348 26.6352C39.7877 27.192 38.2606 27.8268 36.7512 28.5099C35.648 29.0115 34.5311 29.5342 33.6688 30.4085C32.6515 31.4398 32.046 32.8311 31.4661 34.1376C30.8446 35.5339 30.2914 36.9769 29.3874 38.2211C28.5764 39.3391 27.5766 40.2934 26.5064 41.161C25.8995 41.6508 25.2747 42.1029 24.6189 42.5037C27.3189 42.0461 30.0141 41.5564 32.7033 41.104C36.99 40.3808 41.2722 39.6175 45.5637 38.9184C45.6081 38.6899 45.8132 38.5658 46.0405 38.5382C48.5745 38.2508 51.0979 37.8164 53.5844 37.2294C53.9122 37.0997 54.2375 36.9699 54.5624 36.8561C55.8352 36.4084 57.2055 36.3014 58.4632 35.8081C59.6457 35.3454 60.4879 34.404 61.4002 33.5627C62.4103 32.6326 63.5984 31.8766 64.7126 31.0765C65.8701 30.2452 67.1411 29.6135 68.3556 28.874C69.5511 28.1475 70.5051 27.2163 71.4869 26.2296C72.485 25.2272 73.6315 24.4144 74.6767 23.461C75.7517 22.4788 76.8286 21.5419 78.0366 20.7196C79.1824 19.9414 80.3774 19.2416 81.5518 18.5067C82.8179 17.7121 84.04 16.8528 85.2569 15.9826C87.6395 14.276 90.0267 12.6042 92.5879 11.1758C95.1249 9.76019 97.7799 8.44823 100.512 7.44981C103.227 6.45642 106.101 5.99682 108.963 5.66504C110.503 5.48656 112.052 5.4096 113.602 5.37002C115.014 5.33311 116.44 5.37116 117.847 5.27016C117.922 5.26626 117.994 5.25697 118.067 5.25036C118.075 5.25051 118.091 5.24816 118.104 5.24574C118.125 5.24349 118.147 5.24123 118.168 5.23898C118.371 5.21354 118.574 5.1881 118.778 5.16C119.272 5.09481 119.767 5.03229 120.264 4.98315C121.181 4.89406 122.153 4.82472 123.058 5.05013C123.435 5.14539 123.786 5.31749 124.069 5.58964C124.486 5.98971 124.21 6.60853 123.732 6.77539C122.427 7.23043 121.036 7.41444 119.749 7.92583C118.483 8.42962 117.295 9.18563 116.173 9.95358C113.897 11.5155 111.804 13.321 109.507 14.8586C107.151 16.4323 104.704 17.8763 102.242 19.2746C99.934 20.5852 97.5537 21.7584 95.0839 22.7299C92.555 23.7242 89.9608 24.3705 87.3216 24.9973C84.535 25.6613 81.7602 26.4028 79.0813 27.4289C73.8283 29.4432 69.1781 32.7118 63.9991 34.8955C62.7085 35.4389 61.3999 35.9392 60.0763 36.3938C59.3984 36.8316 58.6412 37.0944 57.8641 37.2876C61.4333 36.98 65.0157 36.8221 68.6005 36.8135C71.6252 36.8076 74.6452 36.9109 77.6706 36.8677C80.117 36.8346 82.5666 36.775 85.0117 36.8139C85.0724 36.7084 85.1832 36.6332 85.351 36.6444C87.0826 36.7496 88.815 36.9563 90.5511 36.9683C91.7696 36.8503 92.988 36.7377 94.2043 36.593C94.3006 36.5815 94.383 36.5964 94.4545 36.6218C95.4178 36.4589 96.3739 36.2559 97.3226 36.018C97.5022 35.9708 97.6819 35.9209 97.8616 35.871C98.8188 35.6067 99.7814 35.3425 100.706 34.9788C101.152 34.8033 101.593 34.6144 102.047 34.4524C102.321 34.3563 102.563 34.241 102.833 34.2141C102.857 34.2039 102.879 34.1937 102.903 34.1835C105.457 32.9789 107.862 31.4888 110.158 29.8526C115.242 26.2295 119.662 21.6174 125.425 19.0316C126.926 18.3563 128.409 17.6779 129.864 16.903C131.257 16.159 132.669 15.5513 134.157 15.0251C134.482 14.9086 134.809 14.7976 135.137 14.6838C135.254 14.566 135.423 14.5159 135.596 14.5246C136.162 14.3274 136.726 14.1302 137.293 13.9331C137.765 13.6407 138.204 13.3024 138.635 12.9533C139.729 12.0648 140.873 11.2466 141.913 10.2931C143.069 9.23505 144.14 8.09004 145.249 6.98313C146.389 5.84478 147.611 4.79872 148.735 3.64674C150.923 1.4083 152.879 -1.04261 155.059 -3.29187C157.184 -5.48883 159.485 -7.51172 162.437 -8.4739C164.104 -9.01801 165.863 -9.23495 167.596 -9.4524C169.577 -9.70242 171.574 -9.82144 173.53 -9.3118C174.185 -9.13918 174.167 -8.30738 173.678 -7.9727C172.613 -7.24367 171.253 -7.28044 170.12 -6.7261C168.755 -6.0615 167.563 -5.1402 166.442 -4.12419C164.04 -1.94322 161.97 0.561536 159.741 2.91385C157.647 5.12476 155.35 7.08105 152.777 8.71463C150.336 10.2654 147.722 11.5195 145.05 12.6151C142.308 13.7386 139.508 14.7091 136.71 15.6822C135.303 16.17 133.852 16.6035 132.493 17.2176C131.029 17.8803 129.653 18.718 128.192 19.3914C126.693 20.0828 125.153 20.688 123.718 21.5139C122.321 22.3193 120.986 23.2272 119.698 24.1973C117.224 26.0595 114.902 28.1086 112.423 29.9654C107.823 33.4138 102.798 36.3099 97.1832 37.725C96.7007 37.8465 96.2132 37.9545 95.7259 38.0545C98.435 38.6506 101.106 39.4353 103.755 40.3663C104.804 40.7332 105.848 41.124 106.886 41.52C109.121 41.6163 111.347 41.2962 113.522 40.8019C117.99 39.7835 122.296 37.9378 126.934 37.8134C126.995 37.812 127.059 37.8132 127.121 37.8117C126.996 37.6386 127.036 37.33 127.291 37.2815C127.62 37.2185 127.875 37.2847 128.174 37.4185C128.948 36.9346 129.767 36.5263 130.619 36.1905C131.925 35.6742 133.249 35.1848 134.589 34.7598C137.358 33.8821 140.22 33.1636 143.126 32.966C144.512 32.8726 145.909 32.8994 147.26 33.2587C148.584 33.6096 149.839 34.2098 151.046 34.8517C153.361 36.0857 155.578 37.4539 158.119 38.1935C159.562 38.6132 161.031 38.8095 162.529 38.8569C163.368 38.8837 164.219 38.8867 165.056 38.7934C165.684 38.7228 166.358 38.4663 166.974 38.7369C167.273 38.868 167.444 39.1193 167.363 39.4538C167.259 39.8892 166.844 40.1346 166.49 40.3519C166.058 40.6156 165.67 40.9469 165.254 41.235C164.365 41.8554 163.38 42.3139 162.375 42.7133C160.402 43.4943 158.315 43.9663 156.216 44.2434C151.459 44.8696 146.598 44.3762 141.993 43.0635C140.85 42.7375 139.724 42.3531 138.62 41.9025C137.567 41.4716 136.553 40.9587 135.513 40.4933C134.485 40.0335 133.43 39.6878 132.316 39.4904C131.221 39.296 130.105 39.2319 128.996 39.1626C126.644 39.0161 124.367 39.2285 122.074 39.7632C119.81 40.2905 117.604 41.0216 115.347 41.5784C113.458 42.0463 111.531 42.4173 109.589 42.5614C110.391 42.8729 111.193 43.1843 111.998 43.4905C114.588 44.4764 117.271 45.2801 119.702 46.639C121.992 47.9179 123.886 49.7465 125.946 51.3411C127.05 52.1971 128.199 52.9286 129.509 53.4285C130.748 53.9004 132.039 54.2212 133.315 54.5738C138.886 56.1104 143.798 59.5173 149.455 60.7568C154.698 61.9056 160.153 60.042 165.026 58.2392C166.224 57.7954 167.425 57.3517 168.626 56.9107C169.289 56.6674 169.753 57.8045 169.089 58.0718C164.267 60.0276 159.359 62.1258 154.108 62.5051C148.371 62.9204 143.338 60.1512 138.252 57.9092C136.731 57.2399 135.188 56.7275 133.626 56.2521C134.134 56.4992 134.633 56.7648 135.113 57.0621C136.373 57.8411 137.41 58.8319 138.326 59.991C139.397 61.3452 140.372 62.7748 141.391 64.168C142.331 65.4556 143.11 66.8602 143.751 68.3208C144.436 69.8809 144.971 71.4621 145.155 73.1619C145.331 74.8003 145.278 76.4529 145.436 78.0936C145.585 79.6301 145.981 81.094 146.732 82.4473C147.471 83.7818 148.43 84.9604 149.53 86.0137C150.769 87.2004 152.177 88.1929 153.67 89.0324C154.404 89.4439 155.16 89.8132 155.907 90.1929C156.652 90.57 157.431 90.9637 158.27 91.0651C158.576 91.103 158.836 91.316 158.829 91.6466C158.824 91.9426 158.557 92.2308 158.248 92.2062C156.258 92.048 154.261 92.023 152.285 91.721C150.559 91.4585 148.855 91.0524 147.201 90.4792C144.019 89.3806 140.944 87.7026 138.689 85.1574C136.553 82.748 135.252 79.8105 134.195 76.8056C133.552 74.9796 132.972 73.1308 132.555 71.2397C132.135 69.338 131.935 67.4138 131.871 65.4682C131.804 63.3811 131.794 61.2819 131.476 59.2114C131.346 58.3581 131.22 57.4115 130.7 56.6947C130.284 56.1213 129.72 55.657 129.149 55.23C128.83 55.2025 128.512 54.951 128.532 54.57C126.758 53.7598 125.214 52.6526 123.654 51.3638C121.48 49.567 119.338 47.9176 116.716 46.819C114.086 45.715 111.367 44.8093 108.707 43.7767C107.449 43.2885 106.183 42.8028 104.91 42.3329C103.772 42.1217 102.655 41.8095 101.54 41.4174C100.991 41.2255 100.449 41.0203 99.903 40.8152C99.7548 40.759 99.6607 40.6585 99.6096 40.5401C97.2973 39.8396 94.9533 39.2585 92.5708 38.8794C92.2882 38.8713 92.0029 38.8658 91.7204 38.8577C91.6777 38.8569 91.6379 38.8455 91.5982 38.8287C91.1977 38.8557 90.7946 38.872 90.3943 38.8829C90.3161 38.9268 90.225 38.949 90.1187 38.931C90.0469 38.9189 89.9724 38.9068 89.9007 38.8948C89.3057 38.9021 88.7086 38.8879 88.1117 38.8578C87.8932 38.8456 87.7626 38.7044 87.7204 38.5409C87.6885 38.5349 87.6592 38.5317 87.6273 38.5284C86.647 38.4643 85.6671 38.3788 84.6865 38.3306C84.2042 38.3053 83.7191 38.2907 83.2339 38.2787C79.9693 38.2774 76.6997 38.3986 73.4413 38.3494C67.378 38.2544 61.3459 38.3386 55.3108 38.9935C55.3001 38.996 55.2894 38.9958 55.2787 38.9982C55.3506 39.005 55.4199 39.0063 55.4918 39.013C58.3465 39.2492 61.1576 39.8126 63.8938 40.6599C66.6884 41.5271 69.3867 42.6831 72.0466 43.8944C74.7144 45.1112 77.3513 46.4127 79.9331 47.8012C82.441 49.1509 84.8249 50.709 87.0198 52.5274C89.2173 54.346 91.2156 56.3954 93.4186 58.206C95.5612 59.9675 97.9371 61.3894 100.432 62.5921C103.008 63.8338 105.68 64.864 108.276 66.066C110.777 67.2236 113.214 68.5319 115.466 70.1248C116.513 70.8651 117.522 71.6739 118.408 72.6031C119.347 73.5866 120.083 74.6997 120.768 75.8677C121.114 76.4584 121.462 77.0439 121.86 77.601C122.226 78.1148 121.596 78.7188 121.073 78.5834C119.836 78.2663 118.702 77.5777 117.511 77.1307C116.179 76.6304 114.833 76.1725 113.489 75.7119C110.837 74.8049 108.207 73.8449 105.596 72.8239C100.36 70.771 95.1797 68.5858 89.9463 66.5249C87.3998 65.5212 84.8021 64.5405 82.4113 63.2037C80.1683 61.9497 78.1071 60.3899 76.1738 58.7018C74.188 56.97 72.3385 55.0888 70.4207 53.2863C68.5239 51.5029 66.4905 49.8875 64.5064 48.2065C63.517 47.366 62.5168 46.5333 61.4564 45.7821C60.3697 45.0091 59.2201 44.3149 58.0813 43.6183C55.7904 42.2167 53.3728 40.8874 50.8322 39.9878C50.7527 39.9596 50.668 39.9259 50.5833 39.895C49.9701 39.8832 49.3541 39.8767 48.7408 39.8676C44.8406 40.4648 40.9516 41.1717 37.0687 41.8412C31.2536 42.8445 25.4332 43.8503 19.6017 44.7412C19.8881 44.9654 20.2326 45.084 20.5911 45.1629C22.8088 45.3735 25.0162 45.7066 27.1765 46.2655C30.2101 47.0493 33.1061 48.3264 35.8567 49.8168C38.5254 51.263 41.037 52.9782 43.3736 54.9168C45.8282 56.9563 48.0162 59.2707 49.941 61.8175C50.9087 63.095 51.6847 64.4888 52.4473 65.893C53.2097 67.2999 54.0262 68.6759 54.8344 70.0596C56.4509 72.8272 58.0642 75.624 60.0697 78.1377C60.9474 79.2374 61.9117 80.2748 63.0015 81.1652C64.107 82.0666 65.3417 82.7731 66.6262 83.3845C69.3962 84.6993 72.2777 85.7601 74.898 87.3707C75.9392 88.0095 76.8955 88.7693 77.6125 89.7673C78.4308 90.9059 78.7258 92.2105 78.9023 93.5768C78.9534 93.9725 79.0044 94.3682 79.109 94.7543C79.211 95.1377 79.3402 95.4949 79.2844 95.8992C79.2007 96.5111 78.5467 96.8159 78.067 96.3773C76.0434 94.5328 73.5155 93.5267 71.0565 92.41C68.6186 91.3043 66.0649 90.5325 63.537 89.6704C60.9879 88.8 58.4414 87.7936 56.2447 86.2071C54.1195 84.654 52.1697 82.8509 50.3989 80.8966ZM69.5241 30.9395C71.9774 29.5757 74.4103 28.1687 76.9742 27.0177C79.5757 25.8515 82.2916 24.9808 85.0449 24.2468C87.707 23.5378 90.4036 22.9788 93.0082 22.0686C98.0966 20.2939 102.807 17.4931 107.328 14.598C108.532 13.8263 109.721 13.025 110.873 12.1776C111.972 11.3692 113.026 10.5039 114.122 9.69016C115.215 8.87632 116.337 8.0977 117.528 7.43512C118.232 7.04588 118.948 6.73156 119.686 6.46835C119.314 6.51456 118.943 6.56343 118.563 6.60948C117.406 6.75262 116.235 6.73815 115.069 6.76111C113.556 6.79074 112.041 6.82299 110.531 6.94071C107.692 7.15825 104.803 7.60154 102.077 8.44271C99.3589 9.28137 96.7386 10.5887 94.2377 11.9302C91.6776 13.3027 89.268 14.8861 86.9098 16.5771C85.7172 17.4317 84.5271 18.2944 83.3059 19.1058C82.1307 19.886 80.9116 20.5934 79.7234 21.3521C78.5597 22.0926 77.4562 22.8902 76.438 23.8255C75.8896 24.3271 75.349 24.8395 74.7797 25.3166C74.2485 25.7598 73.6833 26.1597 73.1728 26.6327C72.6705 27.0978 72.1969 27.5901 71.7078 28.0635C73.818 26.6504 75.9981 25.3454 78.1393 23.9809C80.6451 22.3887 83.1945 20.88 85.7597 19.3823C87.0329 18.6386 88.3164 17.9137 89.6411 17.2644C90.9524 16.6201 92.3066 16.102 93.6767 15.5922C96.8924 14.3897 100.091 13.0882 103.388 12.1246C103.787 12.0069 103.92 12.6016 103.544 12.741C100.673 13.7928 97.7936 14.823 94.9297 15.8989C93.5112 16.4318 92.08 16.9298 90.7049 17.5648C89.3863 18.1743 88.1087 18.8699 86.8493 19.5925C84.2846 21.0609 81.7327 22.5589 79.2352 24.1379C77.9419 24.9559 76.6538 25.7847 75.3527 26.5919C74.0813 27.3836 72.8049 28.1539 71.5697 29.005C70.2506 29.9159 68.9675 30.8995 67.5732 31.6969C66.4244 32.3523 65.2064 32.8623 63.9579 33.2944C63.6526 33.4966 63.35 33.6988 63.0525 33.9145C62.836 34.073 62.6274 34.2424 62.424 34.4172C64.8676 33.4212 67.2137 32.2234 69.5241 30.9395ZM142.509 12.0568C147.923 9.99235 153.174 7.35399 157.352 3.26007C159.652 1.00779 161.69 -1.48958 163.958 -3.76914C165.078 -4.89718 166.251 -5.98154 167.552 -6.90075C168.16 -7.33182 168.8 -7.71695 169.473 -8.03743C169.607 -8.10153 169.742 -8.15762 169.879 -8.211C169.262 -8.1855 168.645 -8.12801 168.035 -8.05169C166.477 -7.85757 164.894 -7.66391 163.379 -7.23692C162.03 -6.8574 160.757 -6.26039 159.618 -5.43942C158.35 -4.52493 157.211 -3.40791 156.125 -2.28987C153.946 -0.0432784 151.989 2.40763 149.801 4.64874C148.694 5.78503 147.487 6.81806 146.364 7.93805C145.687 8.61318 145.023 9.29924 144.349 9.97442C145.527 9.31957 146.724 8.66776 147.827 7.89945C149.076 7.02725 150.202 5.99269 151.35 4.99319C152.584 3.91534 153.839 2.85656 155.094 1.80312C155.742 1.25812 156.4 0.739988 157.087 0.243747C157.791 -0.265518 158.494 -0.769453 159.111 -1.38705C159.359 -1.63302 159.695 -1.26115 159.48 -1.0039C158.486 0.177251 157.09 0.950591 155.908 1.92543C154.602 3.00189 153.311 4.09733 152.029 5.20092C150.892 6.17929 149.785 7.1929 148.578 8.0819C147.298 9.02552 145.881 9.7638 144.503 10.5482C143.923 10.8784 143.338 11.2006 142.746 11.5039C142.428 11.7859 142.106 12.0598 141.775 12.3255C142.014 12.2367 142.261 12.1481 142.509 12.0568ZM139.842 40.9231C144.195 42.5644 148.921 43.3992 153.576 43.2192C155.706 43.1374 157.841 42.8317 159.9 42.2764C160.884 42.0099 161.853 41.6871 162.784 41.2649C163.599 40.8938 164.336 40.4332 165.06 39.9297C164.347 40.0013 163.624 40.0221 162.906 40.019C161.554 40.0144 160.207 39.9032 158.881 39.627C156.339 39.0981 154.016 37.9627 151.762 36.7138C150.609 36.0756 149.451 35.4265 148.219 34.9521C146.983 34.475 145.753 34.246 144.427 34.2392C141.619 34.2253 138.828 34.8519 136.133 35.5949C134.612 36.0138 133.128 36.5268 131.638 37.0343C130.988 37.2565 130.348 37.5083 129.727 37.7951C129.918 37.8441 130.106 37.8877 130.301 37.9101C130.694 37.955 131.092 37.9386 131.485 37.9008C132.284 37.8255 133.074 37.6513 133.877 37.6454C134.725 37.6376 135.566 37.6298 136.415 37.5741C137.251 37.5181 138.089 37.4568 138.929 37.5023C139.789 37.5482 140.602 37.7531 141.435 37.9505C142.285 38.1535 143.14 38.3246 143.984 38.5462C144.374 38.647 144.764 38.7586 145.146 38.8859C145.567 39.0274 145.956 39.2215 146.366 39.3894C148.232 40.148 150.33 40.167 152.316 40.0851C152.749 40.0667 152.736 40.7386 152.303 40.757C151.399 40.7956 150.495 40.7889 149.591 40.7316C148.72 40.6749 147.855 40.5969 147.017 40.3461C146.211 40.1039 145.466 39.7082 144.66 39.4634C143.846 39.2157 143.012 39.0316 142.181 38.8476C141.339 38.6608 140.496 38.3965 139.639 38.2841C138.804 38.1747 137.955 38.1957 137.117 38.249C136.27 38.3021 135.426 38.3819 134.578 38.3843C134.25 38.386 133.924 38.3744 133.599 38.3868C133.633 38.3955 133.668 38.4015 133.702 38.4102C135.855 38.9476 137.782 40.1448 139.842 40.9231ZM132.482 57.505C132.923 59.2552 133.032 61.1109 133.088 62.9097C133.149 64.8552 133.106 66.8095 133.363 68.7428C133.612 70.6199 134.065 72.4663 134.619 74.2746C135.568 77.3761 136.668 80.5044 138.561 83.1706C140.444 85.8233 143.145 87.6755 146.127 88.909C147.948 89.6614 149.858 90.2048 151.796 90.5541C152.729 90.7213 153.668 90.8247 154.611 90.8962C154.381 90.7771 154.151 90.6606 153.927 90.547C152.529 89.8507 151.195 89.0356 149.974 88.06C147.541 86.1196 145.401 83.5473 144.598 80.486C143.758 77.2773 144.464 73.8688 143.377 70.714C142.862 69.2185 142.213 67.7631 141.42 66.393C140.584 64.9446 139.55 63.6045 138.582 62.2417C137.574 60.8247 136.542 59.4153 135.105 58.4062C134.979 58.3158 134.847 58.2359 134.716 58.1534C134.788 58.4001 134.858 58.6469 134.96 58.8862C135.154 59.3327 135.357 59.7766 135.54 60.2309C135.901 61.1234 136.177 62.0328 136.354 62.9804C136.7 64.8407 136.778 66.7386 137.239 68.5798C137.687 70.3647 138.372 72.0742 139.18 73.722C140.089 75.5798 141.14 77.3603 142.159 79.1589C142.376 79.5418 141.78 79.8718 141.563 79.4915C139.739 76.2906 137.81 73.1036 136.764 69.5415C136.216 67.68 136.06 65.7806 135.771 63.8707C135.627 62.9158 135.421 61.973 135.089 61.0651C134.767 60.1814 134.298 59.3482 134.038 58.4417C133.938 58.0958 133.831 57.8003 133.645 57.522C133.188 57.2785 132.72 57.0535 132.247 56.8417C132.347 57.0517 132.423 57.2719 132.482 57.505ZM56.634 41.0647C58.9777 42.3552 61.3216 43.7712 63.4316 45.4253C64.48 46.2483 65.4901 47.1185 66.5085 47.9809C67.5006 48.8187 68.5254 49.6172 69.5039 50.4708C71.4897 52.1999 73.3367 54.0811 75.2489 55.8915C77.1272 57.6692 79.0844 59.3631 81.2413 60.7968C83.4613 62.2743 85.868 63.3421 88.3291 64.3468C90.9306 65.4103 93.5544 66.4182 96.1557 67.4843C98.7757 68.5561 101.387 69.6518 104.01 70.7157C106.609 71.7711 109.222 72.7975 111.865 73.7364C114.451 74.6555 117.1 75.4612 119.612 76.5736C119.259 75.9747 118.905 75.3732 118.491 74.8131C117.771 73.8391 116.889 72.974 115.946 72.2144C113.868 70.5422 111.496 69.2138 109.116 68.0292C104.117 65.5461 98.722 63.8476 94.1798 60.5171C91.923 58.8654 89.9364 56.8989 87.868 55.0242C85.7944 53.144 83.5996 51.4589 81.2002 50.0152C78.7455 48.5358 76.1589 47.2566 73.5825 46.0016C70.9823 44.7328 68.3383 43.5271 65.6266 42.5122C63.005 41.5284 60.2858 40.7614 57.5117 40.3587C57.4213 40.3463 57.3308 40.3339 57.243 40.3215C57.6275 40.5796 58.0204 40.8139 58.4462 41.0008C59.1577 41.3132 59.8636 41.6361 60.564 41.9696C63.4265 43.3288 66.1976 44.8623 68.9466 46.4354C71.656 47.9863 74.3349 49.5981 76.8847 51.4073C79.4529 53.2277 81.7886 55.3476 84.3377 57.1942C87.2918 59.334 90.4076 61.2528 93.5431 63.1133C93.9124 63.3311 93.5654 63.9006 93.1961 63.6828C90.4322 62.0534 87.696 60.3686 85.0558 58.5469C82.4709 56.7663 80.1265 54.6782 77.6071 52.8135C75.1246 50.9761 72.5075 49.3389 69.8408 47.7861C67.1451 46.2167 64.4247 44.6842 61.6321 43.2944C60.821 42.892 60.0017 42.5002 59.1769 42.1217C58.4921 41.8071 57.7824 41.5401 57.1448 41.1331C56.6942 40.8444 56.2397 40.4836 55.7687 40.1492C55.3987 40.1128 55.0259 40.0816 54.6557 40.0532C55.319 40.3726 55.9821 40.7054 56.634 41.0647ZM19.7418 43.2796C20.4277 43.1167 21.1063 42.9191 21.7725 42.6705C23.1076 42.176 24.3428 41.4636 25.4561 40.5754C26.5152 39.7289 27.5463 38.8126 28.3515 37.7158C30.1564 35.2593 30.5835 32.0429 32.5941 29.705C33.3907 28.7788 34.4376 28.1508 35.5253 27.6249C37.0194 26.9041 38.5469 26.2506 40.0947 25.6509C41.8736 24.9623 43.6849 24.3916 45.5293 23.9016C46.1566 23.7349 46.7865 23.5763 47.4161 23.4257C46.4329 23.2388 45.4439 23.0731 44.4518 22.926C42.4624 22.6318 40.4568 22.3479 38.4515 22.1867C34.8485 21.8935 31.1228 22.014 27.6433 23.0621C24.6387 23.9672 21.9059 25.7205 20.327 28.496C18.414 31.8599 18.9615 35.8525 17.7273 39.4269C17.4365 40.2668 17.0555 41.0809 16.5033 41.7798C16.4349 41.8665 16.3614 41.9478 16.2877 42.0317C17.2759 41.4052 18.2071 40.6923 19.0628 39.8873C20.486 38.549 21.6199 37.0025 22.5833 35.3086C23.5687 33.5779 24.5005 31.8594 25.8204 30.3511C27.0476 28.9478 28.4476 27.7104 29.9568 26.6218C31.6608 25.3903 33.5194 24.2978 35.4658 23.5003C35.8287 23.3499 36.1391 23.8546 35.7726 24.0503C34.1234 24.9308 32.4667 25.7819 30.9182 26.8377C29.3642 27.8987 27.9216 29.1272 26.6494 30.5164C25.9901 31.2372 25.386 31.9991 24.8581 32.8238C24.3163 33.6749 23.8405 34.5646 23.3435 35.4432C22.3991 37.1214 21.3129 38.6849 19.9452 40.0482C18.6808 41.3069 17.2333 42.3779 15.675 43.2442C16.0592 43.3769 16.4379 43.5176 16.8109 43.6768C17.7921 43.5542 18.7681 43.4236 19.7418 43.2796ZM58.8513 86.1665C60.0046 86.8074 61.2189 87.3268 62.4529 87.7906C64.9924 88.7435 67.6164 89.466 70.122 90.517C71.3788 91.0426 72.6103 91.6343 73.8449 92.2101C75.0768 92.7832 76.3134 93.3884 77.4568 94.1251C77.4963 94.1526 77.5358 94.18 77.578 94.2048C77.5521 94.023 77.5289 93.8411 77.5031 93.6593C77.4096 92.9694 77.295 92.2737 77.0247 91.6257C76.6064 90.6308 75.8831 89.8221 75.0177 89.1921C72.6872 87.491 69.9175 86.4403 67.302 85.2779C65.8924 84.6507 64.4912 84.005 63.2172 83.1244C62.088 82.3452 61.052 81.4292 60.1246 80.4192C58.0084 78.1168 56.3319 75.4174 54.7404 72.7357C53.9162 71.3463 53.1028 69.9517 52.2894 68.5598C51.5147 67.2354 50.8343 65.8567 50.0462 64.5374C49.2271 63.1614 48.2402 61.9155 47.2047 60.6954C46.1693 59.4753 45.0659 58.3179 43.881 57.2416C41.6895 55.2498 39.3016 53.4863 36.7623 51.9653C34.1756 50.414 31.4199 49.0515 28.5439 48.1188C27.6824 47.8382 26.8095 47.6028 25.9305 47.3992C25.9569 47.4157 25.986 47.4296 26.0123 47.4461C26.7274 47.8492 27.4673 48.2102 28.1962 48.5842C28.9093 48.95 29.6195 49.329 30.2912 49.7687C31.0156 50.244 31.685 50.801 32.3519 51.3499C33.6988 52.4613 34.9507 53.6642 36.1886 54.8962C38.6592 57.3547 41.0509 59.8945 43.3015 62.5595C44.4412 63.907 45.5213 65.3013 46.6421 66.6617C47.7627 68.0275 48.9051 69.3724 50.0502 70.7199C52.5958 73.716 55.1387 76.7174 57.4703 79.8855C57.7199 80.2236 57.1457 80.538 56.8987 80.2052C54.8008 77.3697 52.5214 74.6748 50.2338 71.993C49.1017 70.6644 47.9642 69.341 46.8457 68.0019C45.7115 66.6465 44.6206 65.26 43.4945 63.8995C41.284 61.2299 38.9298 58.6829 36.4885 56.2222C35.264 54.9878 34.0341 53.7533 32.7198 52.6105C31.4396 51.4977 30.1288 50.4483 28.6348 49.6355C27.8271 49.1959 26.9945 48.7985 26.1813 48.3668C25.3523 47.9268 24.5535 47.4368 23.7217 47.002C23.6768 46.9798 23.632 46.955 23.587 46.9328C23.1404 46.8575 22.6936 46.7903 22.244 46.7283C22.2968 46.7613 22.3521 46.797 22.4048 46.8301C24.9343 48.4443 27.3846 50.1529 29.7113 52.0486C32.0276 53.9335 34.3175 55.9405 36.2147 58.26C37.158 59.4143 37.9662 60.6674 38.7851 61.9127C39.5315 63.0446 40.2995 64.1609 41.046 65.2927C43.9328 69.6903 46.6705 74.2131 50.0359 78.2704C51.7251 80.3086 53.5713 82.2244 55.6141 83.9066C56.6274 84.7529 57.6981 85.5256 58.8513 86.1665Z" fill="white" fill-opacity="0.3"/>
</svg>
