<svg width="106" height="106" viewBox="0 0 106 106" fill="none" xmlns="http://www.w3.org/2000/svg">
<path d="M34.5285 70.4891C35.8022 70.4924 37.0638 70.2433 38.2406 69.7562C39.4174 69.2691 40.486 68.5536 41.3847 67.6511L51.2853 57.7512C51.6354 57.416 52.1014 57.2289 52.5861 57.2289C53.0708 57.2289 53.5368 57.416 53.8869 57.7512L63.8233 67.6869C64.7218 68.5895 65.7904 69.3051 66.9672 69.7922C68.144 70.2793 69.4058 70.5283 70.6794 70.5248H72.6321L60.0913 83.0648C58.2105 84.9442 55.6604 86 53.0014 86C50.3424 86 47.7922 84.9442 45.9114 83.0648L33.3377 70.4891H34.5285ZM70.6794 35.4735C69.4058 35.4702 68.1441 35.7193 66.9673 36.2064C65.7905 36.6935 64.7219 37.409 63.8233 38.3115L53.8869 48.25C53.5415 48.5942 53.0738 48.7875 52.5861 48.7875C52.0984 48.7875 51.6307 48.5942 51.2853 48.25L41.3847 38.35C40.4863 37.447 39.4178 36.731 38.241 36.2434C37.0641 35.7558 35.8024 35.5063 34.5285 35.5093H33.3349L45.9114 22.9364C47.7919 21.0562 50.3422 20 53.0014 20C55.6606 20 58.2109 21.0562 60.0913 22.9364L72.6293 35.4735H70.6794ZM22.9366 45.9097L30.4225 38.4215H34.5258C36.3236 38.4262 38.047 39.1397 39.3221 40.407L49.2227 50.307C50.1145 51.1961 51.3226 51.6955 52.582 51.6955C53.8414 51.6955 55.0494 51.1961 55.9413 50.307L65.8804 40.3713C67.1548 39.1027 68.8784 38.3882 70.6767 38.383H75.5362L83.0634 45.9097C84.9437 47.79 86 50.3402 86 52.9992C86 55.6582 84.9437 58.2084 83.0634 60.0887L75.539 67.6126H70.6767C68.8788 67.6082 67.1553 66.8947 65.8804 65.6271L55.9441 55.6914C55.0386 54.8273 53.835 54.3452 52.5834 54.3452C51.3317 54.3452 50.1281 54.8273 49.2227 55.6914L39.3221 65.5914C38.047 66.8587 36.3236 67.5722 34.5258 67.5769H30.4253L22.9366 60.0887C21.0563 58.2084 20 55.6582 20 52.9992C20 50.3402 21.0563 47.79 22.9366 45.9097Z" fill="#C75E6D"/>
</svg>
