<svg width="304" height="217" viewBox="0 0 304 217" fill="none" xmlns="http://www.w3.org/2000/svg">
<path d="M100.035 182V173.017H103.911C104.912 173.017 105.686 173.218 106.234 173.62C106.79 174.022 107.068 174.591 107.068 175.327C107.068 175.814 106.952 176.225 106.721 176.559C106.499 176.892 106.191 177.145 105.797 177.316C105.412 177.487 104.989 177.573 104.527 177.573L104.745 177.265C105.318 177.265 105.81 177.354 106.221 177.534C106.64 177.705 106.965 177.966 107.196 178.317C107.427 178.659 107.543 179.087 107.543 179.6C107.543 180.362 107.26 180.952 106.696 181.371C106.14 181.79 105.297 182 104.168 182H100.035ZM100.985 181.217H104.155C104.942 181.217 105.545 181.085 105.964 180.819C106.383 180.546 106.593 180.114 106.593 179.523C106.593 178.941 106.383 178.518 105.964 178.253C105.545 177.979 104.942 177.842 104.155 177.842H100.882V177.059H103.847C104.565 177.059 105.121 176.922 105.515 176.649C105.917 176.375 106.118 175.968 106.118 175.429C106.118 174.882 105.917 174.476 105.515 174.21C105.121 173.937 104.565 173.8 103.847 173.8H100.985V181.217ZM110.159 182V175.263H111.032V177.098L110.942 176.777C111.13 176.264 111.447 175.874 111.892 175.609C112.337 175.335 112.889 175.198 113.547 175.198V176.084C113.513 176.084 113.479 176.084 113.445 176.084C113.41 176.075 113.376 176.071 113.342 176.071C112.632 176.071 112.076 176.289 111.674 176.726C111.272 177.153 111.071 177.765 111.071 178.561V182H110.159ZM118.737 182.064C118.163 182.064 117.663 181.957 117.235 181.743C116.807 181.529 116.474 181.209 116.234 180.781C116.003 180.353 115.888 179.818 115.888 179.177V175.263H116.799V179.074C116.799 179.793 116.974 180.336 117.325 180.704C117.684 181.063 118.185 181.243 118.826 181.243C119.297 181.243 119.703 181.149 120.046 180.961C120.396 180.764 120.662 180.481 120.841 180.114C121.029 179.746 121.123 179.305 121.123 178.792V175.263H122.035V182H121.162V180.152L121.303 180.486C121.089 180.982 120.756 181.371 120.302 181.654C119.857 181.927 119.335 182.064 118.737 182.064ZM128.655 175.198C129.202 175.198 129.682 175.305 130.092 175.519C130.511 175.725 130.837 176.041 131.067 176.469C131.307 176.897 131.427 177.436 131.427 178.086V182H130.516V178.176C130.516 177.466 130.336 176.931 129.977 176.572C129.626 176.204 129.13 176.02 128.488 176.02C128.009 176.02 127.59 176.118 127.23 176.315C126.88 176.503 126.606 176.781 126.409 177.149C126.221 177.508 126.127 177.945 126.127 178.458V182H125.216V175.263H126.088V177.111L125.947 176.764C126.161 176.276 126.503 175.896 126.974 175.622C127.444 175.34 128.005 175.198 128.655 175.198ZM138.752 182V180.511L138.713 180.268V177.778C138.713 177.205 138.551 176.764 138.226 176.456C137.909 176.148 137.434 175.994 136.801 175.994C136.365 175.994 135.95 176.067 135.556 176.212C135.163 176.358 134.829 176.55 134.555 176.79L134.145 176.11C134.487 175.819 134.897 175.596 135.377 175.442C135.856 175.28 136.36 175.198 136.891 175.198C137.764 175.198 138.435 175.417 138.906 175.853C139.385 176.281 139.624 176.935 139.624 177.816V182H138.752ZM136.429 182.064C135.924 182.064 135.484 181.983 135.107 181.82C134.739 181.649 134.457 181.418 134.26 181.127C134.063 180.828 133.965 180.486 133.965 180.101C133.965 179.75 134.046 179.433 134.209 179.151C134.38 178.86 134.654 178.629 135.03 178.458C135.415 178.278 135.928 178.189 136.57 178.189H138.893V178.869H136.596C135.946 178.869 135.492 178.984 135.235 179.215C134.987 179.446 134.863 179.733 134.863 180.075C134.863 180.46 135.013 180.768 135.312 180.999C135.612 181.23 136.031 181.346 136.57 181.346C137.083 181.346 137.524 181.23 137.892 180.999C138.268 180.759 138.542 180.417 138.713 179.972L138.919 180.601C138.747 181.046 138.448 181.401 138.02 181.666C137.601 181.932 137.071 182.064 136.429 182.064ZM149.115 182.077C148.533 182.077 148.016 181.983 147.562 181.795C147.109 181.598 146.75 181.328 146.484 180.986C146.228 180.644 146.099 180.246 146.099 179.793C146.099 179.408 146.185 179.057 146.356 178.74C146.527 178.415 146.801 178.099 147.177 177.791C147.562 177.474 148.071 177.145 148.705 176.803C149.243 176.503 149.663 176.247 149.962 176.033C150.27 175.81 150.488 175.601 150.617 175.404C150.745 175.198 150.809 174.98 150.809 174.749C150.809 174.416 150.694 174.146 150.463 173.941C150.24 173.736 149.919 173.633 149.5 173.633C149.047 173.633 148.696 173.748 148.448 173.979C148.2 174.202 148.076 174.493 148.076 174.852C148.076 175.032 148.101 175.203 148.153 175.365C148.213 175.528 148.32 175.708 148.474 175.904C148.636 176.101 148.858 176.349 149.141 176.649L153.889 181.538L153.363 182.141L148.409 177.046C148.11 176.73 147.87 176.456 147.691 176.225C147.52 175.986 147.4 175.759 147.331 175.545C147.263 175.331 147.229 175.104 147.229 174.865C147.229 174.48 147.319 174.146 147.498 173.864C147.686 173.573 147.952 173.351 148.294 173.197C148.636 173.034 149.038 172.953 149.5 172.953C149.919 172.953 150.283 173.025 150.591 173.171C150.908 173.308 151.151 173.509 151.322 173.774C151.502 174.039 151.592 174.36 151.592 174.736C151.592 175.062 151.511 175.365 151.348 175.648C151.194 175.93 150.937 176.208 150.578 176.482C150.219 176.747 149.731 177.046 149.115 177.38C148.576 177.68 148.148 177.953 147.832 178.201C147.524 178.45 147.306 178.693 147.177 178.933C147.049 179.164 146.985 179.421 146.985 179.703C146.985 180.028 147.075 180.315 147.254 180.563C147.443 180.802 147.699 180.99 148.024 181.127C148.358 181.256 148.739 181.32 149.166 181.32C149.765 181.32 150.3 181.196 150.771 180.948C151.241 180.7 151.635 180.323 151.951 179.818C152.276 179.314 152.512 178.681 152.657 177.919L153.389 178.15C153.226 179.006 152.948 179.724 152.554 180.306C152.161 180.888 151.673 181.328 151.091 181.628C150.51 181.927 149.851 182.077 149.115 182.077ZM164.1 182.077C163.415 182.077 162.782 181.966 162.201 181.743C161.627 181.512 161.127 181.192 160.699 180.781C160.28 180.37 159.95 179.887 159.711 179.331C159.48 178.775 159.364 178.167 159.364 177.508C159.364 176.85 159.48 176.242 159.711 175.686C159.95 175.13 160.284 174.647 160.712 174.236C161.14 173.825 161.64 173.509 162.213 173.286C162.795 173.055 163.428 172.94 164.113 172.94C164.797 172.94 165.422 173.047 165.986 173.261C166.56 173.475 167.047 173.8 167.449 174.236L166.859 174.839C166.483 174.463 166.068 174.193 165.614 174.031C165.161 173.868 164.673 173.787 164.151 173.787C163.595 173.787 163.082 173.881 162.611 174.069C162.149 174.249 161.743 174.51 161.392 174.852C161.05 175.186 160.78 175.579 160.584 176.033C160.395 176.478 160.301 176.969 160.301 177.508C160.301 178.039 160.395 178.531 160.584 178.984C160.78 179.438 161.05 179.835 161.392 180.178C161.743 180.511 162.149 180.772 162.611 180.961C163.082 181.14 163.591 181.23 164.138 181.23C164.652 181.23 165.135 181.153 165.588 180.999C166.05 180.845 166.474 180.584 166.859 180.216L167.398 180.935C166.97 181.311 166.47 181.598 165.896 181.795C165.323 181.983 164.724 182.077 164.1 182.077ZM166.487 180.819V177.508H167.398V180.935L166.487 180.819ZM174.757 182V180.511L174.718 180.268V177.778C174.718 177.205 174.556 176.764 174.231 176.456C173.914 176.148 173.439 175.994 172.806 175.994C172.37 175.994 171.955 176.067 171.561 176.212C171.168 176.358 170.834 176.55 170.56 176.79L170.15 176.11C170.492 175.819 170.903 175.596 171.382 175.442C171.861 175.28 172.366 175.198 172.896 175.198C173.769 175.198 174.44 175.417 174.911 175.853C175.39 176.281 175.63 176.935 175.63 177.816V182H174.757ZM172.434 182.064C171.929 182.064 171.489 181.983 171.112 181.82C170.744 181.649 170.462 181.418 170.265 181.127C170.069 180.828 169.97 180.486 169.97 180.101C169.97 179.75 170.051 179.433 170.214 179.151C170.385 178.86 170.659 178.629 171.035 178.458C171.42 178.278 171.934 178.189 172.575 178.189H174.898V178.869H172.601C171.951 178.869 171.497 178.984 171.241 179.215C170.993 179.446 170.868 179.733 170.868 180.075C170.868 180.46 171.018 180.768 171.318 180.999C171.617 181.23 172.036 181.346 172.575 181.346C173.089 181.346 173.529 181.23 173.897 180.999C174.273 180.759 174.547 180.417 174.718 179.972L174.924 180.601C174.753 181.046 174.453 181.401 174.025 181.666C173.606 181.932 173.076 182.064 172.434 182.064ZM182.224 182.064C181.633 182.064 181.103 181.932 180.632 181.666C180.162 181.393 179.79 180.999 179.516 180.486C179.242 179.972 179.105 179.352 179.105 178.625C179.105 177.889 179.242 177.269 179.516 176.764C179.798 176.251 180.175 175.862 180.645 175.596C181.116 175.331 181.642 175.198 182.224 175.198C182.865 175.198 183.439 175.344 183.943 175.635C184.457 175.917 184.859 176.315 185.15 176.828C185.441 177.342 185.586 177.94 185.586 178.625C185.586 179.301 185.441 179.9 185.15 180.422C184.859 180.935 184.457 181.337 183.943 181.628C183.439 181.919 182.865 182.064 182.224 182.064ZM178.746 182V172.478H179.657V177.252L179.529 178.612L179.619 179.972V182H178.746ZM182.16 181.256C182.639 181.256 183.066 181.149 183.443 180.935C183.819 180.712 184.119 180.404 184.341 180.011C184.564 179.609 184.675 179.147 184.675 178.625C184.675 178.094 184.564 177.632 184.341 177.239C184.119 176.845 183.819 176.542 183.443 176.328C183.066 176.105 182.639 175.994 182.16 175.994C181.68 175.994 181.248 176.105 180.863 176.328C180.487 176.542 180.188 176.845 179.965 177.239C179.751 177.632 179.644 178.094 179.644 178.625C179.644 179.147 179.751 179.609 179.965 180.011C180.188 180.404 180.487 180.712 180.863 180.935C181.248 181.149 181.68 181.256 182.16 181.256ZM188.085 182V175.263H188.958V177.098L188.868 176.777C189.056 176.264 189.373 175.874 189.817 175.609C190.262 175.335 190.814 175.198 191.473 175.198V176.084C191.439 176.084 191.404 176.084 191.37 176.084C191.336 176.075 191.302 176.071 191.268 176.071C190.557 176.071 190.001 176.289 189.599 176.726C189.197 177.153 188.996 177.765 188.996 178.561V182H188.085ZM193.777 182V175.263H194.688V182H193.777ZM194.239 173.774C194.051 173.774 193.893 173.71 193.764 173.582C193.636 173.453 193.572 173.299 193.572 173.12C193.572 172.94 193.636 172.79 193.764 172.67C193.893 172.542 194.051 172.478 194.239 172.478C194.427 172.478 194.586 172.538 194.714 172.658C194.842 172.777 194.906 172.927 194.906 173.107C194.906 173.295 194.842 173.453 194.714 173.582C194.594 173.71 194.436 173.774 194.239 173.774ZM200.727 182.064C200.025 182.064 199.409 181.919 198.879 181.628C198.349 181.328 197.934 180.922 197.634 180.409C197.335 179.887 197.185 179.292 197.185 178.625C197.185 177.958 197.326 177.367 197.609 176.854C197.899 176.341 198.293 175.939 198.789 175.648C199.294 175.348 199.859 175.198 200.483 175.198C201.116 175.198 201.677 175.344 202.164 175.635C202.66 175.917 203.05 176.319 203.332 176.841C203.614 177.354 203.756 177.949 203.756 178.625C203.756 178.668 203.751 178.715 203.743 178.766C203.743 178.809 203.743 178.856 203.743 178.907H197.878V178.227H203.255L202.896 178.497C202.896 178.009 202.789 177.577 202.575 177.2C202.37 176.815 202.087 176.516 201.728 176.302C201.369 176.088 200.954 175.981 200.483 175.981C200.021 175.981 199.606 176.088 199.238 176.302C198.87 176.516 198.584 176.815 198.378 177.2C198.173 177.585 198.07 178.026 198.07 178.522V178.663C198.07 179.177 198.182 179.63 198.404 180.024C198.635 180.409 198.952 180.712 199.354 180.935C199.764 181.149 200.231 181.256 200.753 181.256C201.163 181.256 201.544 181.183 201.895 181.038C202.254 180.892 202.562 180.67 202.819 180.37L203.332 180.961C203.033 181.32 202.656 181.594 202.203 181.782C201.758 181.97 201.266 182.064 200.727 182.064ZM206.252 182V172.478H207.163V182H206.252Z" fill="white"/>
<path d="M92 138.176V58.0004C92 58.0004 134.939 58.0004 137.958 58.0004C140.978 58.0004 158.086 62.0257 158.086 81.1473C158.086 100.269 143.997 105.972 137.958 105.972C131.92 105.972 93.3419 105.972 93.3419 105.972" stroke="white" stroke-width="2.53" stroke-linecap="round"/>
<path d="M105.418 91.2109V163C105.418 163 129.907 163 140.307 163C150.706 163 164.125 155.029 164.125 135.828C164.125 116.626 148.506 106.441 136.281 106.441C124.056 106.441 106.549 106.441 106.549 106.441" stroke="white" stroke-width="2.53" stroke-linecap="round"/>
<path d="M218.134 70.7476C206.057 56.7419 181.904 55.4686 162.447 61.1983" stroke="white" stroke-width="2.53" stroke-linecap="round"/>
<path d="M167.479 161.994C189.284 164.677 206.057 161.994 218.469 150.253V118.048H179.22" stroke="white" stroke-width="2.53" stroke-linecap="round"/>
<path d="M218.137 104.629H179.888" stroke="white" stroke-width="2.53" stroke-linecap="round"/>
<circle cx="159.012" cy="109.779" r="106.057" stroke="white" stroke-width="1.86066"/>
<circle cx="145.988" cy="106.988" r="106.057" stroke="white" stroke-width="1.86066"/>
<path d="M292.316 96.5532C292.227 96.4431 292.133 96.3386 292.027 96.2417C290.076 94.4229 287.209 96.7736 287.197 99.0546C287.194 99.303 287.223 99.5351 287.277 99.7591C287.002 99.9877 286.829 100.391 286.982 100.727C287.384 101.599 287.93 102.321 288.669 102.895C287.119 104.474 285.436 105.904 283.81 107.399C282.026 109.038 280.339 110.779 278.648 112.516C275.281 115.97 272.038 119.528 268.96 123.25C267.027 125.586 265.165 127.963 263.417 130.429C264.464 128.344 265.517 126.263 266.419 124.105C268.309 119.585 269.552 114.667 269.727 109.759C269.812 107.369 269.423 104.976 269.566 102.591C270.293 102.334 270.992 101.881 271.54 101.417C272.522 100.589 273.475 99.4971 273.875 98.2522C274.288 96.9709 274.062 95.6009 273.347 94.4877C272.699 93.4802 271.656 92.6044 270.405 92.7246C269.317 92.8292 268.427 93.6818 267.806 94.534C267.148 95.4378 266.668 96.4989 266.643 97.6341C266.21 97.6632 265.784 97.9754 265.798 98.5452C265.823 99.4119 265.797 100.337 266.093 101.161C266.465 102.181 267.291 102.757 268.352 102.797C268.361 102.799 268.372 102.795 268.381 102.797C268.174 104.726 268.352 106.676 268.378 108.618C268.407 111.058 268.09 113.496 267.597 115.885C267.109 118.248 266.442 120.592 265.579 122.845C264.734 125.054 263.707 127.183 262.674 129.307C261.51 131.695 260.328 134.08 259.372 136.567C259.351 136.619 259.342 136.666 259.335 136.714C257.278 140.155 255.381 143.704 253.706 147.347C253.115 148.635 252.541 149.932 251.996 151.242C252.77 147.172 253.497 143.091 254.161 138.995C255.913 128.166 256.308 117.222 255.919 106.285C255.892 105.572 255.865 104.859 255.831 104.144C255.939 102.65 256.084 101.159 256.261 99.6721C256.319 99.6381 256.372 99.5967 256.417 99.537C257.942 97.4517 259.792 95.6623 261.535 93.7722C263.343 91.8104 264.933 89.6761 266.361 87.4134C267.059 86.3084 267.724 85.1802 268.38 84.0469C269.85 84.4696 271.611 83.9757 272.553 82.7175C273.571 81.3537 273.931 79.4749 273.106 77.9396C272.688 77.1593 271.938 76.514 271.075 76.3402C270.14 76.1551 269.267 76.4675 268.522 77.0454C267.98 77.465 267.489 78.016 267.12 78.6383C266.778 78.6141 266.408 78.7609 266.273 79.1067C265.924 79.9919 265.83 80.9553 266.151 81.8631C266.38 82.513 266.793 83.1152 267.337 83.5314C266.008 85.5653 264.723 87.6345 263.285 89.5903C261.763 91.6599 259.986 93.4839 258.243 95.3577C257.675 95.9685 257.12 96.5918 256.584 97.2322C257.163 93.2064 257.969 89.2111 258.934 85.2612C259.721 82.0319 260.591 78.8227 261.663 75.6779C262.711 72.6036 263.989 69.6256 265.31 66.6628C266.843 63.2229 268.378 59.7798 269.8 56.2907C269.844 56.1819 269.853 56.0788 269.843 55.985C270.332 56.0591 270.856 56.0093 271.282 55.7462C271.495 55.613 271.668 55.4289 271.799 55.2133C272.23 54.8496 272.583 54.365 272.791 53.8508C273.102 53.0857 273.181 52.2927 273.019 51.4863C272.883 50.8032 272.525 50.0909 271.965 49.6778C270.732 48.7698 269.227 49.5029 268.293 50.5171C268.239 50.5781 268.19 50.6434 268.139 50.705C267.918 50.6268 267.668 50.6379 267.469 50.7937C267.241 50.9696 267.042 51.1713 266.914 51.4365C266.852 51.5648 266.802 51.715 266.785 51.859C266.773 51.9515 266.765 52.0515 266.766 52.1433C266.767 52.1666 266.766 52.1892 266.767 52.2125C266.77 52.3081 266.777 52.3062 266.794 52.2081C266.818 52.3408 266.767 52.4974 266.764 52.6345C266.762 52.7257 266.765 52.8181 266.776 52.9087C266.801 53.1596 266.855 53.4131 266.942 53.6472C267.266 54.5066 267.924 55.277 268.749 55.6658C268.77 55.6765 268.791 55.6809 268.812 55.6916C268.798 55.7117 268.783 55.735 268.772 55.7589C266.01 61.8693 262.942 67.8775 260.711 74.2148C260.234 75.5716 259.791 76.9453 259.373 78.3273C259.364 78.2141 259.362 78.1021 259.352 77.992C259.222 76.5467 259.058 75.1076 258.917 73.6635C258.646 70.8363 258.298 68.0555 257.739 65.274C257.453 63.8492 257.161 62.4232 256.942 60.9859C257.081 60.8735 257.21 60.746 257.334 60.6436C257.569 60.4494 257.825 60.266 258.019 60.0272C258.215 59.7891 258.393 59.5308 258.557 59.2661C258.837 58.8092 259.001 58.3188 259.181 57.8184C259.404 57.1991 259.561 56.6219 259.538 55.9552C259.462 53.8986 257.397 52.1024 255.38 52.6521C253.765 53.0908 252.687 54.7337 252.593 56.382C252.198 57.3527 252.299 58.4578 252.937 59.3061C253.293 59.7788 253.627 60.3256 254.085 60.7047C254.539 61.0761 255.063 61.2917 255.646 61.3262C255.719 61.3313 255.792 61.3333 255.866 61.3352C256.258 63.899 256.874 66.4234 257.236 68.9941C257.642 71.8818 257.806 74.8083 258.129 77.7085C258.221 78.53 258.251 79.3551 258.29 80.179C258.316 80.6954 258.257 81.2796 258.383 81.7935C257.331 85.7352 256.489 89.743 255.812 93.7486C255.632 94.8188 255.469 95.8928 255.319 96.9694C255.107 94.9963 254.83 93.0294 254.453 91.0813C253.403 85.6931 252.104 80.3518 250.89 75.0018C250.294 72.3799 249.629 69.8027 248.856 67.2297C248.199 65.0474 247.65 62.8413 247.051 60.6446C247.261 60.5731 247.437 60.4028 247.497 60.1136C248.017 57.5632 248.415 55.0272 249.316 52.5715C249.761 51.3588 250.257 50.1599 250.648 48.9295C250.787 48.4831 250.922 48.0455 251.086 47.6237C251.181 47.6923 251.279 47.7584 251.402 47.8164C252.009 48.0981 252.672 47.7755 253.175 47.4395C253.629 47.133 253.97 46.7082 254.269 46.2519C254.553 45.8219 254.843 45.3637 255.04 44.8866C255.286 44.2982 255.478 43.6267 255.424 42.9832C255.399 42.6832 255.374 42.3832 255.352 42.0838C255.321 41.7172 255.219 41.4309 255.06 41.11C254.805 40.5991 254.426 40.1642 253.944 39.8687C253.391 39.5292 252.607 39.5618 251.99 39.7235C250.951 39.9823 249.977 40.8832 249.626 41.9055C249.436 42.4531 249.402 43.0751 249.487 43.6757C249.516 44.5531 249.594 45.4896 249.955 46.2943C249.656 46.8915 249.458 47.5586 249.267 48.1779C248.891 49.4014 248.415 50.5946 247.985 51.8005C247.519 53.1038 247.113 54.4096 246.825 55.7659C246.652 56.5953 246.502 57.4329 246.354 58.2673C245.751 56.3221 245.065 54.4058 244.491 52.45C243.861 50.3092 243.3 48.127 242.368 46.0948C241.976 45.2378 241.528 44.4318 240.99 43.6728C241.104 43.6043 241.216 43.529 241.319 43.4486C242.177 42.7727 242.644 41.8103 242.626 40.7059C242.611 39.7625 242.199 38.7345 241.467 38.142C240.789 37.5967 239.931 37.3487 239.066 37.4007C237.4 37.4979 235.703 38.8535 235.972 40.704C235.973 40.7109 235.975 40.7179 235.974 40.721C235.923 41.2052 235.952 41.6895 236.156 42.1375C236.596 43.1058 237.5 43.8186 238.52 44.0572C238.762 44.1134 239.01 44.1413 239.257 44.1428C239.273 44.1724 239.286 44.2014 239.307 44.2284C240.584 46.0138 241.366 48.0579 242.011 50.1559C242.688 52.3653 243.349 54.5715 244.071 56.7639C244.887 59.2344 245.515 61.7481 246.183 64.2638C246.866 66.8216 247.716 69.3286 248.381 71.8926C248.507 72.3739 248.627 72.857 248.746 73.3401C248.095 72.476 247.381 71.6514 246.693 70.8288C244.689 68.4358 242.622 66.0987 240.556 63.7616C239.592 62.6696 238.629 61.5744 237.673 60.4741C238.094 59.8758 238.33 59.1509 238.293 58.393C238.232 57.1685 237.483 56.1401 236.406 55.631C235.397 55.152 234.139 55.0578 233.105 55.5436C232.543 55.8085 232.042 56.1872 231.679 56.7057C231.492 56.9754 231.33 57.2632 231.195 57.5631C231.108 57.7517 231.047 57.9554 231.027 58.161C231.018 58.2673 231.005 58.3761 231.009 58.4818C231.014 58.6302 231.065 58.7717 231.085 58.9133C231.083 58.9063 231.079 58.9252 231.079 59.0038C231.079 59.0824 231.09 59.1667 231.103 59.2447C231.131 59.424 231.164 59.6045 231.215 59.7788C231.309 60.1059 231.468 60.4236 231.658 60.7018C232.072 61.2978 232.667 61.7637 233.344 62.0008C234 62.2304 234.736 62.2864 235.397 62.0222C235.436 62.0072 235.466 61.9871 235.505 61.9689C235.876 61.8617 236.236 61.7061 236.565 61.5083C236.609 61.4813 236.654 61.4511 236.695 61.4235C238.477 63.5025 240.283 65.5632 242.073 67.634C244.021 69.8911 246.01 72.1533 247.78 74.5605C248.234 75.1779 248.607 75.8506 249.035 76.4855C249.195 76.7215 249.385 76.9242 249.581 77.125C249.613 77.1577 249.644 77.1936 249.675 77.2295C250.471 80.7081 251.201 84.2093 251.958 87.6866C252.524 90.2795 253.07 92.8617 253.402 95.4984C253.721 98.0276 253.913 100.57 254.045 103.116C254.598 113.822 254.506 124.663 252.976 135.302C252.38 139.445 251.694 143.573 250.939 147.691C250.921 147.199 250.9 146.706 250.867 146.214C250.595 142.155 249.588 138.188 248.417 134.318C247.441 131.094 246.418 127.879 245.33 124.685C245.006 123.134 244.719 121.575 244.558 119.996C244.356 117.992 244.308 115.97 244.307 113.955C244.307 111.891 244.322 109.814 244.453 107.751C244.581 105.733 244.836 103.724 245.074 101.716C245.329 99.5662 245.546 97.4092 245.889 95.2712C246.054 95.2626 246.216 95.2401 246.388 95.2132C246.654 95.1726 246.934 95.1515 247.19 95.0762C247.592 94.9622 247.956 94.6927 248.256 94.4037C248.821 93.8546 249.179 92.9713 249.072 92.1762C248.965 91.3843 248.531 90.7154 247.974 90.1721C246.971 89.1964 245.423 88.5415 244.042 89.0609C242.48 89.6481 242.018 91.5256 242.386 93.0328C242.572 93.8015 243.1 94.4995 243.793 94.858C244.098 95.0155 244.42 95.1994 244.756 95.2846C244.346 97.0943 244.171 98.9519 243.932 100.79C243.66 102.883 243.397 104.979 243.247 107.087C243.1 109.151 243.089 111.222 243.093 113.287C243.098 115.201 243.152 117.116 243.307 119.021C242.268 116.243 241.163 113.491 239.976 110.78C238.12 106.54 236.081 102.378 234.202 98.1394C235.259 97.6844 235.749 96.5434 235.768 95.3875C235.79 94.1995 235.078 92.992 234.286 92.1743C233.407 91.2634 232.173 90.7384 230.924 91.0523C230.565 91.1425 230.155 91.1861 229.856 91.423C229.576 91.6441 229.223 91.9387 229.025 92.2354C228.828 92.5226 228.788 92.9666 228.708 93.3073C228.678 93.4419 228.663 93.5765 228.655 93.7092C228.528 93.8896 228.498 94.1291 228.543 94.3644C228.604 94.6783 228.635 95.0286 228.744 95.3262C228.846 95.6093 229.013 95.8925 229.195 96.1297C229.482 96.5029 229.839 96.8253 230.21 97.1174C230.268 97.1754 230.326 97.2364 230.39 97.2887C230.603 97.4669 230.837 97.6293 231.088 97.7497C231.213 97.8114 231.344 97.8776 231.476 97.9375C231.993 98.1876 232.547 98.3504 233.115 98.3553C233.122 98.3799 233.127 98.4038 233.138 98.429C234.671 102.242 236.395 105.967 238.03 109.733C239.678 113.53 241.172 117.394 242.57 121.298C243.955 125.173 245.217 129.088 246.432 133.023C246.729 133.985 247.026 134.95 247.315 135.92C246.868 135.015 246.4 134.12 245.927 133.23C245.649 132.708 245.393 132.171 245.083 131.665C244.765 131.148 244.372 130.687 243.985 130.224C240.821 126.417 237.519 122.729 233.951 119.308C231.971 117.408 229.921 115.585 227.806 113.844C227.793 113.832 227.778 113.825 227.764 113.816C228.072 113.001 228.255 112.033 227.956 111.192C227.653 110.35 226.925 109.689 226.141 109.316C225.346 108.936 224.357 108.763 223.527 109.147C222.733 109.514 222.212 110.237 221.932 111.054C221.778 111.212 221.68 111.425 221.705 111.662C221.712 111.739 221.725 111.817 221.734 111.898C221.643 112.574 221.705 113.304 221.98 113.904C222.036 114.024 222.087 114.149 222.158 114.258C222.192 114.311 222.221 114.406 222.156 114.222C222.179 114.282 222.238 114.402 222.283 114.48C222.445 114.769 222.683 115.002 222.963 115.17C223.192 115.306 223.441 115.376 223.696 115.403C223.802 115.477 223.916 115.549 224.033 115.606C224.621 115.9 225.273 115.942 225.906 115.771C226.447 115.623 226.883 115.263 227.215 114.817C230.817 117.823 234.214 121.075 237.395 124.538C239.059 126.351 240.658 128.225 242.235 130.118C242.982 131.014 243.743 131.891 244.308 132.921C244.883 133.97 245.457 135.024 246.01 136.084C246.634 137.281 247.289 138.486 247.74 139.765C248.175 141.007 248.454 142.293 248.79 143.564C248.842 143.765 249.005 143.864 249.178 143.88C249.214 144.113 249.253 144.344 249.282 144.579C249.777 148.428 249.62 152.324 249.311 156.193C248.53 160.065 247.709 163.927 246.87 167.784C246.205 170.839 245.524 173.877 244.772 176.901C244.728 175.113 244.651 173.315 244.281 171.565C243.895 169.736 243.237 167.983 242.735 166.186C242.255 164.472 241.577 162.849 240.745 161.286C240.291 160.433 239.799 159.605 239.289 158.789C238.936 158.225 238.598 157.619 238.199 157.075C239.243 156.211 240.132 155.041 240.117 153.625C240.088 150.822 237.384 148.871 234.853 148.611C233.58 148.481 232.266 148.703 231.195 149.466C230.432 150.008 229.983 150.754 229.791 151.599C229.668 151.587 229.545 151.595 229.434 151.634C228.95 151.804 228.804 152.278 228.896 152.739C229.14 153.989 229.413 155.257 230.092 156.343C230.854 157.561 232.162 158.386 233.556 158.629C234.684 158.828 235.764 158.558 236.748 158.045C237.02 158.521 237.342 158.97 237.633 159.429C238.079 160.133 238.511 160.844 238.92 161.574C239.751 163.051 240.459 164.592 240.945 166.228C241.453 167.944 242.031 169.652 242.468 171.389C242.915 173.182 242.986 175.031 243.041 176.876C243.098 178.864 240.859 177.498 240.933 179.485C240.84 179.8 238.939 180.728 238.843 181.043C235.911 184.6 228.804 189.723 228.804 189.723C228.804 189.723 224.58 192.227 224.204 193.562C223.896 194.656 224.204 193.562 226.707 193.009C230.048 191.416 232.031 191.088 235.482 187.574C237.575 185.442 236.738 186.295 240.505 182.459C244.271 178.623 245.525 177.769 247.614 176.487C249.704 175.205 256.36 167.467 260.386 163.145C260.97 162.522 261.562 161.906 262.172 161.31C262.485 161.004 262.807 160.703 263.131 160.406C263.136 160.4 263.174 160.369 263.205 160.346C263.22 160.333 263.236 160.319 263.243 160.314C263.331 160.247 263.418 160.18 263.505 160.116C264.051 159.707 264.802 159.238 265.292 158.638C265.58 158.956 265.927 159.22 266.307 159.403C267.812 160.124 269.701 159.853 270.928 158.673C271.963 157.68 272.011 156.084 271.689 154.773C271.33 153.301 270.306 152.016 268.733 151.939C267.346 151.874 266.152 152.907 265.495 154.076C265.363 154.315 265.256 154.568 265.171 154.829C264.796 154.857 264.396 155.129 264.36 155.527C264.315 156.01 264.33 156.471 264.421 156.919C264.313 157.022 264.221 157.157 264.172 157.334C264.182 157.303 264.186 157.281 264.19 157.265C264.138 157.33 264.083 157.391 264.023 157.45C263.853 157.622 263.711 157.75 263.588 157.849C263.221 158.151 262.84 158.43 262.46 158.716C261.403 159.518 260.467 160.528 259.553 161.494C257.502 163.655 255.529 165.904 253.697 168.26C250.592 172.256 249.714 172.657 246.367 175.642C247.217 172.58 246.849 173.093 247.766 171.758C248.603 167.91 249.425 164.062 250.218 160.208C250.5 159.195 250.791 158.183 251.106 157.18C251.134 157.15 251.161 157.112 251.183 157.068C251.321 156.772 251.548 156.54 251.732 156.273C251.942 155.969 252.106 155.635 252.264 155.304C252.595 154.612 252.86 153.887 253.176 153.188C253.317 152.879 253.469 152.576 253.633 152.276C253.766 152.064 253.897 151.852 254.024 151.635C254.034 151.621 254.041 151.603 254.047 151.588C254.127 151.466 254.207 151.342 254.292 151.225C254.704 150.654 255.158 150.115 255.448 149.467C255.514 149.32 255.51 149.182 255.467 149.065C257.727 146.308 260.111 143.638 262.824 141.335C264.399 139.997 266.065 138.772 267.795 137.65C269.563 136.495 271.411 135.485 273.212 134.387C274.262 133.744 275.303 133.083 276.348 132.435C276.999 132.028 277.661 131.636 278.305 131.218C278.411 131.342 278.529 131.457 278.662 131.56C279.361 132.096 280.318 132.188 281.139 131.881C281.942 131.581 282.539 130.956 283.008 130.246C283.445 129.589 283.736 128.843 283.959 128.086C284.054 127.761 284.129 127.429 284.181 127.096C284.25 126.652 284.357 126.205 284.322 125.752C284.279 125.223 284.085 124.698 283.767 124.279C283.362 123.747 282.642 123.547 281.999 123.569C281.621 123.583 281.249 123.687 280.897 123.857C280.264 123.875 279.613 124.138 279.123 124.552C278.47 125.106 277.918 125.969 277.683 126.861C277.533 127.014 277.438 127.23 277.451 127.511C277.485 128.265 277.488 129.144 277.686 129.931C276.118 130.724 274.644 131.758 273.167 132.684C271.344 133.823 269.461 134.866 267.65 136.024C264.088 138.301 260.834 141.002 257.937 144.11C256.933 145.188 255.968 146.307 255.023 147.44C256.746 143.784 258.685 140.23 260.776 136.777C263.224 132.732 265.989 128.954 268.97 125.3C271.988 121.601 275.141 118.015 278.47 114.603C280.336 112.689 282.193 110.76 284.135 108.927C286.064 107.111 288.076 105.397 289.808 103.384C290.467 103.427 291.193 103.173 291.677 102.804C292.286 102.336 292.809 101.634 293.182 100.96C293.549 100.295 293.798 99.5206 293.772 98.752C293.736 97.742 293.122 96.9446 292.316 96.5532ZM269.417 156.289C269.441 156.347 269.467 156.405 269.484 156.464C269.495 156.502 269.506 156.544 269.514 156.581C269.514 156.584 269.514 156.584 269.516 156.588C269.516 156.591 269.516 156.591 269.517 156.598C269.529 156.699 269.534 156.798 269.536 156.897C269.529 156.886 269.505 157.067 269.496 157.108C269.495 157.115 269.494 157.121 269.489 157.127C269.473 157.159 269.459 157.196 269.443 157.228C269.421 157.273 269.396 157.314 269.372 157.355C269.368 157.357 269.364 157.36 269.359 157.369C269.326 157.404 269.293 157.443 269.259 157.482C269.251 157.49 269.25 157.497 269.246 157.499C269.242 157.502 269.238 157.504 269.231 157.509C269.19 157.537 269.146 157.564 269.105 157.592C269.286 157.177 269.416 156.748 269.417 156.289ZM268.713 153.695C268.716 153.695 268.716 153.695 268.716 153.695C268.749 153.708 268.797 153.708 268.831 153.715C268.871 153.724 269.041 153.785 269.04 153.778C269.098 153.806 269.156 153.835 269.21 153.869C269.21 153.872 269.229 153.889 269.256 153.911C269.096 153.865 268.931 153.837 268.763 153.842C268.712 153.793 268.661 153.746 268.609 153.703C268.645 153.697 268.68 153.698 268.713 153.695Z" fill="white" fill-opacity="0.3"/>
<path d="M12.7472 87.6746C12.8423 87.5532 12.942 87.4381 13.0538 87.3315C15.1249 85.331 18.2111 87.9624 18.2432 90.4923C18.2483 90.7679 18.2188 91.025 18.1634 91.2729C18.4592 91.5289 18.6473 91.978 18.487 92.3493C18.0643 93.313 17.4871 94.1083 16.7013 94.7389C18.3724 96.5033 20.1847 98.1041 21.9361 99.7755C23.8577 101.609 25.6756 103.554 27.4993 105.495C31.1286 109.354 34.627 113.327 37.9502 117.482C40.0375 120.089 42.0482 122.741 43.9384 125.49C42.8008 123.169 41.6574 120.852 40.675 118.452C38.6154 113.423 37.2444 107.958 37.0155 102.513C36.9035 99.8612 37.299 97.2108 37.1264 94.5641C36.3469 94.2727 35.5949 93.7646 35.0051 93.245C33.9481 92.3191 32.9201 91.0997 32.482 89.7157C32.0288 88.2911 32.2591 86.7736 33.0147 85.5451C33.6984 84.4332 34.8068 83.4708 36.1455 83.6148C37.3091 83.74 38.2689 84.6932 38.9402 85.6436C39.6507 86.6516 40.1739 87.8325 40.2094 89.0917C40.6726 89.1277 41.1316 89.4775 41.1207 90.1094C41.1018 91.0703 41.1375 92.0966 40.8275 93.0081C40.4385 94.1359 39.5603 94.7673 38.4264 94.8033C38.4165 94.8054 38.4052 94.8004 38.3954 94.8024C38.6325 96.9446 38.4587 99.1055 38.4479 101.258C38.4374 103.965 38.7971 106.671 39.3447 109.325C39.8866 111.95 40.6195 114.555 41.562 117.062C42.484 119.518 43.6005 121.888 44.7229 124.252C45.988 126.911 47.2728 129.567 48.3166 132.333C48.3386 132.39 48.3494 132.443 48.3568 132.496C50.5859 136.329 52.644 140.282 54.4661 144.337C55.1096 145.77 55.7347 147.214 56.3284 148.671C55.4662 144.15 54.6534 139.618 53.909 135.069C51.9433 123.044 51.4277 110.904 51.7511 98.7777C51.774 97.9869 51.7969 97.1962 51.8264 96.4041C51.6987 94.7453 51.5308 93.0911 51.3293 91.4402C51.2667 91.4021 51.2092 91.3557 51.1612 91.2891C49.5122 88.9634 47.5185 86.9631 45.6393 84.8521C43.6888 82.661 41.9701 80.2804 40.4248 77.7587C39.6685 76.5273 38.948 75.2703 38.2367 74.0078C36.668 74.4642 34.7807 73.9014 33.7629 72.498C32.6626 70.9768 32.2621 68.89 33.131 67.1943C33.5712 66.3325 34.3682 65.6232 35.2898 65.4378C36.2878 65.2404 37.2241 65.5943 38.0251 66.2415C38.6082 66.7115 39.1388 67.3269 39.538 68.0201C39.9033 67.9962 40.3006 68.1622 40.448 68.5468C40.8282 69.5315 40.9378 70.6008 40.6022 71.6049C40.3623 72.3237 39.9262 72.9881 39.3482 73.4451C40.7865 75.7121 42.1779 78.0179 43.7323 80.1992C45.3778 82.5074 47.2935 84.5456 49.1724 86.6385C49.7853 87.3207 50.3839 88.0168 50.9623 88.7315C50.3096 84.2618 49.4131 79.8239 48.3485 75.435C47.479 71.8467 46.5213 68.2802 45.3484 64.7833C44.2017 61.3647 42.8093 58.0511 41.3722 54.754C39.7029 50.9258 38.0328 47.0941 36.4828 43.2124C36.434 43.0914 36.4242 42.9769 36.4337 42.8731C35.9116 42.951 35.351 42.8913 34.8929 42.5959C34.6634 42.4464 34.4773 42.2408 34.3355 42.0006C33.8716 41.5935 33.49 41.0531 33.263 40.481C32.9239 39.6298 32.8326 38.7497 32.999 37.8567C33.1386 37.1002 33.5153 36.3133 34.1112 35.8599C35.4217 34.8633 37.0374 35.6892 38.0443 36.822C38.1028 36.89 38.1554 36.9629 38.2107 37.0317C38.4469 36.9468 38.7137 36.9613 38.9277 37.1357C39.1738 37.3327 39.3879 37.5581 39.5273 37.8534C39.5943 37.9962 39.6491 38.1632 39.6682 38.3231C39.6824 38.4257 39.6914 38.5367 39.6918 38.6385C39.6902 38.6643 39.6919 38.6894 39.6904 38.7152C39.6881 38.8212 39.6808 38.8191 39.6619 38.7101C39.6372 38.8571 39.6935 39.0312 39.6972 39.1833C39.7008 39.2844 39.6979 39.3869 39.6876 39.4873C39.6624 39.7654 39.6069 40.0461 39.516 40.3049C39.1762 41.2553 38.4798 42.1041 37.6003 42.5283C37.5787 42.54 37.5557 42.5447 37.5341 42.5564C37.549 42.5789 37.5646 42.6048 37.5769 42.6314C40.5823 49.4317 43.9147 56.1213 46.3539 63.1687C46.8758 64.6775 47.3604 66.2048 47.8194 67.7411C47.8279 67.6156 47.8299 67.4914 47.8391 67.3695C47.9665 65.7676 48.1295 64.1729 48.2674 62.5725C48.5331 59.4393 48.8814 56.3582 49.4561 53.278C49.7495 51.7003 50.0494 50.1213 50.2712 48.5291C50.122 48.4032 49.9831 48.2607 49.85 48.1461C49.5963 47.9288 49.3211 47.7232 49.1122 47.4567C48.9001 47.1909 48.7073 46.9029 48.5303 46.608C48.2271 46.0988 48.0468 45.5536 47.8504 44.997C47.6063 44.3083 47.4336 43.6668 47.4534 42.9277C47.517 40.6474 49.7099 38.6728 51.8708 39.2996C53.6014 39.7999 54.7687 41.6312 54.8833 43.4601C55.3138 44.54 55.2154 45.7647 54.5401 46.7002C54.1638 47.2213 53.8112 47.825 53.3242 48.2415C52.8424 48.6496 52.2839 48.8842 51.6601 48.9175C51.5823 48.9226 51.5038 48.9241 51.4253 48.9257C51.0276 51.7658 50.3908 54.5602 50.0255 57.4082C49.6158 60.6074 49.4654 63.8516 49.1443 67.0654C49.0533 67.9757 49.0285 68.8906 48.993 69.804C48.9699 70.3764 49.0378 71.0249 48.9077 71.5938C50.0665 75.9743 51.0002 80.4264 51.7582 84.8745C51.9608 86.063 52.1436 87.2556 52.3134 88.4508C52.523 86.2643 52.8027 84.0853 53.1897 81.928C54.2657 75.961 55.6098 70.0482 56.8627 64.1251C57.4773 61.2223 58.1672 58.3696 58.9714 55.5226C59.6551 53.1079 60.2236 50.6659 60.8457 48.2347C60.62 48.1536 60.4302 47.9632 60.3643 47.6419C59.7868 44.809 59.3395 41.993 58.3544 39.2619C57.8687 37.9131 57.3278 36.5792 56.8999 35.2113C56.7467 34.715 56.599 34.2286 56.4205 33.7593C56.3194 33.8346 56.2143 33.9071 56.0834 33.9704C55.4369 34.2777 54.7249 33.9142 54.1849 33.5373C53.6963 33.1935 53.3283 32.7195 53.0047 32.2108C52.6973 31.7316 52.3835 31.221 52.1684 30.6901C51.9005 30.0354 51.6891 29.289 51.7417 28.5759C51.766 28.2434 51.7904 27.9109 51.8114 27.579C51.8412 27.1726 51.9476 26.856 52.1148 26.5015C52.3829 25.937 52.785 25.4579 53.2979 25.1343C53.8865 24.7625 54.7247 24.8053 55.3863 24.9899C56.4992 25.2857 57.5489 26.2932 57.9328 27.4299C58.14 28.0389 58.1821 28.729 58.0958 29.3944C58.0725 30.3672 57.9975 31.4052 57.6178 32.2946C57.9427 32.9595 58.1599 33.701 58.3696 34.3895C58.7822 35.7496 59.3012 37.077 59.7716 38.4181C60.2813 39.8674 60.7264 41.3192 61.0457 42.8258C61.2381 43.7471 61.4049 44.6773 61.5709 45.604C62.1989 43.4518 62.9158 41.3324 63.5138 39.1681C64.1693 36.7992 64.7501 34.3838 65.7289 32.1378C66.1413 31.1908 66.6134 30.3006 67.182 29.4634C67.06 29.3866 66.9398 29.302 66.8288 29.212C65.9059 28.4551 65.3983 27.3837 65.4076 26.159C65.4158 25.1129 65.8476 23.9762 66.6258 23.3254C67.346 22.7264 68.2611 22.4587 69.1861 22.5237C70.9693 22.6457 72.7954 24.1635 72.5235 26.2136C72.5217 26.2212 72.5198 26.2289 72.5205 26.2324C72.5794 26.7698 72.5524 27.3067 72.3386 27.8018C71.876 28.872 70.9159 29.6548 69.8271 29.9108C69.5687 29.9711 69.3038 29.9999 69.0398 29.9995C69.0226 30.0322 69.0085 30.0641 68.9873 30.094C67.6363 32.0633 66.8181 34.3236 66.146 36.6449C65.441 39.0895 64.7523 41.5307 63.9988 43.9561C63.1472 46.6891 62.4978 49.4716 61.8041 52.2559C61.096 55.0869 60.2082 57.8601 59.5187 60.6981C59.388 61.2308 59.2646 61.7656 59.1412 62.3004C59.8301 61.3475 60.5863 60.4391 61.3155 59.5327C63.4377 56.8957 65.6275 54.3213 67.8174 51.7469C68.8388 50.5439 69.8595 49.3375 70.8721 48.1254C70.4166 47.4582 70.1588 46.6523 70.1921 45.812C70.2461 44.4545 71.0383 43.3203 72.1856 42.7648C73.2608 42.2422 74.6057 42.1484 75.7153 42.696C76.318 42.9945 76.8575 43.4188 77.2502 43.997C77.4524 44.2976 77.6278 44.6183 77.7751 44.952C77.8695 45.1619 77.9365 45.3883 77.9594 45.6166C77.9698 45.7345 77.9843 45.8553 77.9809 45.9724C77.977 46.137 77.9234 46.2935 77.9042 46.4503C77.906 46.4427 77.9103 46.4636 77.9111 46.5508C77.9118 46.638 77.9001 46.7314 77.887 46.8178C77.8592 47.0164 77.8248 47.2163 77.7718 47.4091C77.6746 47.7711 77.5067 48.1222 77.3058 48.429C76.8682 49.0865 76.2363 49.5982 75.5145 49.8554C74.815 50.1044 74.0279 50.1603 73.3189 49.8617C73.2777 49.8447 73.2457 49.8221 73.2037 49.8016C72.8051 49.6796 72.4195 49.5039 72.0655 49.2817C72.0182 49.2514 71.9701 49.2176 71.926 49.1866C70.0378 51.4772 68.1248 53.7473 66.2279 56.0287C64.164 58.5154 62.0566 61.0074 60.1848 63.6621C59.7041 64.343 59.3115 65.0858 58.8588 65.7864C58.6894 66.0468 58.4884 66.2699 58.2802 66.491C58.2464 66.527 58.2134 66.5665 58.1804 66.6061C57.3594 70.4573 56.6087 74.3341 55.8286 78.1843C55.2453 81.0551 54.6835 83.9143 54.3504 86.8358C54.0306 89.638 53.8476 92.4559 53.7274 95.2791C53.2276 107.147 53.418 119.172 55.1446 130.984C55.8173 135.584 56.5861 140.168 57.4279 144.741C57.4429 144.196 57.4612 143.65 57.4933 143.105C57.7495 138.605 58.7921 134.213 60.0114 129.931C61.0277 126.364 62.0944 122.808 63.2307 119.274C63.564 117.557 63.8576 115.83 64.0162 114.08C64.2154 111.859 64.2492 109.618 64.233 107.383C64.216 105.094 64.1821 102.79 64.0245 100.5C63.8703 98.2611 63.581 96.0313 63.3088 93.8017C63.0182 91.4158 62.7672 89.0217 62.3831 86.6477C62.2061 86.6367 62.0327 86.6104 61.8481 86.5791C61.5642 86.5318 61.2642 86.506 60.9896 86.4204C60.5585 86.2904 60.1675 85.9885 59.8442 85.6654C59.2351 85.0515 58.8451 84.0689 58.9523 83.1881C59.0603 82.3107 59.519 81.5725 60.1092 80.9747C61.1743 79.9011 62.8239 79.1879 64.3051 79.7758C65.9803 80.4403 66.4903 82.5265 66.1094 84.1949C65.9172 85.0459 65.3587 85.8155 64.6199 86.2072C64.2953 86.3793 63.9527 86.5805 63.5945 86.6722C64.048 88.6827 64.2515 90.7444 64.5226 92.785C64.8312 95.109 65.1301 97.435 65.3083 99.7748C65.4831 102.064 65.5122 104.362 65.526 106.652C65.5364 108.775 65.4954 110.898 65.3459 113.01C66.4329 109.938 67.591 106.894 68.8376 103.898C70.7862 99.2118 72.9309 94.6124 74.904 89.9281C73.7705 89.4145 73.2359 88.1449 73.206 86.8627C73.1723 85.545 73.9236 84.2118 74.7638 83.3116C75.696 82.3089 77.0113 81.7371 78.3496 82.0959C78.734 82.199 79.1731 82.2509 79.4948 82.5161C79.7958 82.7637 80.1753 83.0934 80.3905 83.4241C80.6035 83.7444 80.6497 84.2371 80.7377 84.6157C80.7717 84.7652 80.7887 84.9146 80.7983 85.0618C80.9355 85.263 80.9695 85.5289 80.9235 85.7895C80.8612 86.1371 80.8311 86.5254 80.717 86.8545C80.6098 87.1676 80.434 87.4802 80.2409 87.7418C79.938 88.1533 79.5583 88.5077 79.1648 88.8286C79.1025 88.8923 79.0409 88.9596 78.9738 89.017C78.7467 89.2128 78.4988 89.391 78.2309 89.5223C78.0974 89.5898 77.958 89.662 77.8172 89.7273C77.2665 90.0003 76.6754 90.1762 76.0689 90.1768C76.0607 90.204 76.0559 90.2304 76.0445 90.2582C74.438 94.4744 72.6261 98.5907 70.9092 102.753C69.1791 106.951 67.6152 111.224 66.1529 115.541C64.7047 119.827 63.3892 124.158 62.1229 128.512C61.8133 129.576 61.5045 130.644 61.2037 131.717C61.674 130.718 62.1669 129.729 62.6645 128.746C62.9575 128.17 63.2265 127.576 63.554 127.017C63.8893 126.446 64.3062 125.939 64.7157 125.429C68.0674 121.233 71.5665 117.171 75.3528 113.407C77.4534 111.317 79.6301 109.313 81.8768 107.4C81.8911 107.386 81.9068 107.379 81.9218 107.369C81.5852 106.463 81.3817 105.387 81.6948 104.457C82.0111 103.526 82.7841 102.8 83.619 102.392C84.4663 101.978 85.5219 101.794 86.4126 102.227C87.2653 102.641 87.828 103.447 88.1344 104.355C88.3009 104.532 88.4077 104.769 88.3829 105.032C88.3763 105.117 88.3632 105.204 88.3541 105.293C88.4566 106.043 88.3964 106.853 88.1074 107.516C88.0488 107.648 87.995 107.787 87.9203 107.907C87.8843 107.966 87.8543 108.07 87.9223 107.867C87.8983 107.934 87.8365 108.067 87.789 108.153C87.6179 108.472 87.3653 108.727 87.0674 108.912C86.8236 109.06 86.5582 109.137 86.286 109.163C86.1725 109.245 86.0517 109.324 85.9273 109.386C85.3009 109.707 84.6033 109.749 83.9257 109.553C83.3462 109.384 82.8764 108.982 82.5173 108.484C78.6912 111.787 75.086 115.365 71.7143 119.179C69.9507 121.175 68.2562 123.24 66.5864 125.326C65.7952 126.314 64.9891 127.28 64.393 128.417C63.7873 129.575 63.183 130.74 62.6007 131.911C61.9428 133.232 61.2529 134.564 60.782 135.978C60.327 137.352 60.0397 138.776 59.6908 140.183C59.637 140.405 59.4638 140.513 59.2786 140.529C59.2425 140.788 59.2024 141.044 59.1736 141.304C58.6774 145.569 58.8783 149.891 59.2412 154.184C60.1097 158.486 61.0202 162.775 61.9505 167.061C62.6876 170.454 63.4415 173.83 64.2711 177.189C64.3031 175.207 64.3707 173.213 64.7513 171.276C65.1483 169.251 65.8371 167.312 66.3581 165.323C66.8569 163.427 67.5685 161.633 68.4448 159.906C68.9233 158.964 69.4418 158.05 69.9804 157.149C70.3531 156.527 70.7093 155.857 71.1312 155.257C70.0076 154.291 69.0474 152.985 69.0512 151.415C69.0578 148.306 71.9332 146.166 74.6374 145.899C75.998 145.766 77.4046 146.023 78.5568 146.878C79.377 147.485 79.863 148.317 80.0761 149.256C80.2072 149.244 80.3394 149.253 80.4582 149.298C80.9774 149.49 81.137 150.018 81.043 150.528C80.792 151.912 80.511 153.316 79.7938 154.514C78.9899 155.858 77.5987 156.762 76.1094 157.021C74.905 157.231 73.7484 156.922 72.6911 156.346C72.4045 156.871 72.0641 157.366 71.7568 157.873C71.2855 158.65 70.8296 159.435 70.3984 160.241C69.5232 161.872 68.7791 163.575 68.273 165.386C67.744 167.285 67.1408 169.173 66.6887 171.097C66.225 173.08 66.1656 175.131 66.1227 177.177C66.0777 179.381 68.4607 177.885 68.3985 180.088C68.5012 180.438 70.5411 181.484 70.6471 181.833C73.8125 185.804 81.4554 191.546 81.4554 191.546C81.4554 191.546 85.9935 194.359 86.4074 195.843C86.7457 197.058 86.4074 195.843 83.7258 195.208C80.1395 193.413 78.0163 193.033 74.2959 189.105C72.0401 186.724 72.9424 187.676 68.882 183.39C64.8215 179.103 63.4734 178.145 61.2283 176.706C58.9833 175.266 51.7992 166.628 47.4574 161.801C46.8278 161.104 46.1898 160.416 45.5323 159.75C45.1948 159.408 44.8482 159.072 44.499 158.74C44.4943 158.733 44.4528 158.698 44.42 158.672C44.4033 158.657 44.3866 158.643 44.3785 158.637C44.2843 158.562 44.19 158.486 44.0965 158.415C43.509 157.956 42.7019 157.43 42.1737 156.76C41.8685 157.11 41.4997 157.4 41.095 157.6C39.4914 158.387 37.4695 158.07 36.1468 156.751C35.0314 155.641 34.9666 153.871 35.2996 152.42C35.6713 150.79 36.7552 149.374 38.437 149.302C39.919 149.242 41.2047 150.397 41.9173 151.7C42.0609 151.965 42.1769 152.247 42.2707 152.537C42.6718 152.571 43.1011 152.876 43.1439 153.319C43.1954 153.854 43.1838 154.366 43.0902 154.862C43.2062 154.976 43.3057 155.127 43.3596 155.323C43.3492 155.289 43.3442 155.264 43.3406 155.247C43.3965 155.319 43.455 155.387 43.5201 155.454C43.7034 155.646 43.8562 155.789 43.9886 155.9C44.3835 156.238 44.7937 156.55 45.2021 156.87C46.3392 157.769 47.3486 158.898 48.3342 159.976C50.5463 162.39 52.6755 164.902 54.6542 167.531C58.0087 171.989 58.951 172.441 62.5549 175.78C61.6204 172.376 62.0177 172.949 61.0261 171.461C60.098 167.186 59.187 162.911 58.3057 158.63C57.9958 157.504 57.6761 156.379 57.3308 155.264C57.2999 155.23 57.2709 155.189 57.247 155.139C57.0971 154.809 56.8521 154.55 56.6539 154.253C56.4267 153.913 56.2478 153.542 56.0762 153.174C55.716 152.403 55.4271 151.596 55.0826 150.819C54.9299 150.476 54.7648 150.138 54.5865 149.804C54.4421 149.568 54.301 149.331 54.1625 149.09C54.1524 149.074 54.1448 149.054 54.1379 149.037C54.0519 148.902 53.9652 148.763 53.8734 148.633C53.4275 147.996 52.9374 147.394 52.6215 146.673C52.5502 146.509 52.5531 146.356 52.5985 146.226C50.1579 143.15 47.5862 140.169 44.6652 137.591C42.9701 136.093 41.1773 134.722 39.3183 133.462C37.4179 132.166 35.4336 131.03 33.4978 129.797C32.3695 129.075 31.2508 128.333 30.1284 127.606C29.428 127.149 28.7174 126.709 28.0248 126.239C27.9122 126.375 27.7875 126.503 27.6461 126.615C26.9033 127.204 25.8805 127.298 25.0005 126.951C24.139 126.61 23.4955 125.913 22.9871 125.122C22.5147 124.389 22.1971 123.559 21.9525 122.717C21.8477 122.357 21.7652 121.988 21.7065 121.618C21.6292 121.124 21.5104 120.628 21.5445 120.126C21.5852 119.539 21.7884 118.959 22.1254 118.497C22.5535 117.91 23.3216 117.695 24.0097 117.725C24.4146 117.743 24.8125 117.862 25.1911 118.054C25.868 118.079 26.5664 118.376 27.0932 118.839C27.7962 119.459 28.3944 120.421 28.6526 121.412C28.8144 121.583 28.9186 121.824 28.9071 122.135C28.8764 122.971 28.8808 123.946 28.6758 124.818C30.3598 125.709 31.9446 126.869 33.5321 127.908C35.491 129.188 37.5135 130.36 39.4596 131.66C43.2876 134.216 46.7899 137.239 49.9147 140.71C50.9979 141.915 52.039 143.164 53.0592 144.429C51.186 140.359 49.0823 136.401 46.8161 132.553C44.1643 128.046 41.1755 123.833 37.9571 119.755C34.6978 115.627 31.2958 111.623 27.7069 107.81C25.6952 105.672 23.6938 103.516 21.601 101.467C19.5224 99.4372 17.3572 97.5194 15.4876 95.2717C14.7835 95.3142 14.0047 95.0263 13.4846 94.6125C12.8287 94.0883 12.2637 93.3053 11.8596 92.5548C11.4609 91.8141 11.1884 90.953 11.209 90.1008C11.2398 88.9809 11.8889 88.1017 12.7472 87.6746ZM37.7425 154.121C37.7177 154.184 37.6897 154.248 37.6723 154.313C37.6604 154.356 37.6493 154.402 37.6407 154.443C37.6415 154.447 37.6415 154.447 37.6389 154.451C37.6396 154.455 37.6396 154.455 37.6377 154.462C37.6263 154.574 37.6215 154.684 37.62 154.793C37.6277 154.781 37.6554 154.983 37.6647 155.028C37.6661 155.035 37.6675 155.042 37.6723 155.048C37.69 155.085 37.7052 155.125 37.7229 155.162C37.7468 155.211 37.7733 155.257 37.7998 155.302C37.8038 155.305 37.8078 155.308 37.8132 155.318C37.8488 155.358 37.8852 155.401 37.9215 155.445C37.9302 155.454 37.9317 155.461 37.9357 155.464C37.9397 155.467 37.9437 155.469 37.9517 155.475C37.9958 155.506 38.0431 155.536 38.0872 155.567C37.8897 155.106 37.7473 154.629 37.7425 154.121ZM38.473 151.249C38.4697 151.249 38.4697 151.249 38.4697 151.249C38.4349 151.264 38.3835 151.263 38.3473 151.271C38.3045 151.28 38.1228 151.346 38.1246 151.338C38.0624 151.369 38.0002 151.4 37.9428 151.437C37.9435 151.441 37.9233 151.46 37.894 151.484C38.0655 151.434 38.2412 151.405 38.4208 151.412C38.4747 151.357 38.5293 151.306 38.5847 151.258C38.5456 151.252 38.508 151.252 38.473 151.249Z" fill="white" fill-opacity="0.3"/>
</svg>
