<svg width="284" height="239" viewBox="0 0 284 239" fill="none" xmlns="http://www.w3.org/2000/svg">
<rect x="1.16122" y="45.5901" width="251" height="195" transform="rotate(-10.1955 1.16122 45.5901)" stroke="white" stroke-width="2"/>
<rect x="18.0637" y="21.0054" width="251" height="195" transform="rotate(0.310929 18.0637 21.0054)" stroke="white" stroke-width="2"/>
<path d="M86 147.176V67.0004C86 67.0004 128.939 67.0004 131.958 67.0004C134.978 67.0004 152.086 71.0257 152.086 90.1473C152.086 109.269 137.997 114.972 131.958 114.972C125.92 114.972 87.3419 114.972 87.3419 114.972" stroke="white" stroke-width="2.53" stroke-linecap="round"/>
<path d="M99.4182 100.211V172C99.4182 172 123.907 172 134.306 172C144.706 172 158.124 164.029 158.124 144.828C158.124 125.626 142.506 115.441 130.281 115.441C118.056 115.441 100.549 115.441 100.549 115.441" stroke="white" stroke-width="2.53" stroke-linecap="round"/>
<path d="M212.134 79.7476C200.057 65.7419 175.904 64.4686 156.447 70.1983" stroke="white" stroke-width="2.53" stroke-linecap="round"/>
<path d="M161.479 170.994C183.284 173.677 200.057 170.994 212.469 159.253V127.048H173.22" stroke="white" stroke-width="2.53" stroke-linecap="round"/>
<path d="M212.137 113.629H173.888" stroke="white" stroke-width="2.53" stroke-linecap="round"/>
</svg>
