<svg width="184" height="40" viewBox="0 0 184 40" fill="none" xmlns="http://www.w3.org/2000/svg">
<path d="M2 28.0903V4.00012C2 4.00012 14.9019 4.00012 15.809 4.00012C16.7162 4.00012 21.8568 5.2096 21.8568 10.955C21.8568 16.7005 17.6233 18.4139 15.809 18.4139C13.9947 18.4139 2.40318 18.4139 2.40318 18.4139" stroke="white" stroke-width="2.2627" stroke-linecap="round"/>
<path d="M6.0318 13.9788V35.5491C6.0318 35.5491 13.3899 35.5491 16.5146 35.5491C19.6392 35.5491 23.6711 33.1541 23.6711 27.3846C23.6711 21.6151 18.9782 18.5551 15.305 18.5551C11.6318 18.5551 6.37154 18.5551 6.37154 18.5551" stroke="white" stroke-width="2.2627" stroke-linecap="round"/>
<path d="M39.8992 7.83024C36.2706 3.62196 29.0133 3.23939 23.1671 4.96096" stroke="white" stroke-width="2.2627" stroke-linecap="round"/>
<path d="M24.679 35.2467C31.2307 36.0531 36.2705 35.2467 40 31.7189V22.0425H28.2069" stroke="white" stroke-width="2.2627" stroke-linecap="round"/>
<path d="M39.9001 18.0106H28.4076" stroke="white" stroke-width="2.2627" stroke-linecap="round"/>
<path d="M64.463 23V14.0169H68.3385C69.3395 14.0169 70.1138 14.2179 70.6613 14.62C71.2174 15.0221 71.4955 15.5911 71.4955 16.3268C71.4955 16.8145 71.38 17.2251 71.149 17.5588C70.9265 17.8925 70.6185 18.1448 70.225 18.3159C69.84 18.487 69.4165 18.5726 68.9545 18.5726L69.1727 18.2646C69.7459 18.2646 70.2378 18.3544 70.6485 18.5341C71.0677 18.7052 71.3928 18.9661 71.6238 19.3169C71.8548 19.6591 71.9703 20.0869 71.9703 20.6002C71.9703 21.3616 71.688 21.952 71.1233 22.3712C70.5672 22.7904 69.7245 23 68.5952 23H64.463ZM65.4126 22.2172H68.5824C69.3695 22.2172 69.9726 22.0846 70.3918 21.8194C70.811 21.5456 71.0206 21.1135 71.0206 20.5232C71.0206 19.9415 70.811 19.518 70.3918 19.2528C69.9726 18.979 69.3695 18.8421 68.5824 18.8421H65.3099V18.0593H68.2744C68.993 18.0593 69.5491 17.9224 69.9427 17.6486C70.3448 17.3749 70.5458 16.9685 70.5458 16.4295C70.5458 15.8819 70.3448 15.4756 69.9427 15.2103C69.5491 14.9366 68.993 14.7997 68.2744 14.7997H65.4126V22.2172ZM74.587 23V16.2627H75.4597V18.0978L75.3698 17.777C75.5581 17.2636 75.8746 16.8744 76.3195 16.6091C76.7644 16.3354 77.3162 16.1985 77.975 16.1985V17.084C77.9407 17.084 77.9065 17.084 77.8723 17.084C77.8381 17.0754 77.8038 17.0711 77.7696 17.0711C77.0595 17.0711 76.5034 17.2893 76.1013 17.7256C75.6992 18.1534 75.4982 18.7651 75.4982 19.5607V23H74.587ZM83.1642 23.0642C82.591 23.0642 82.0905 22.9572 81.6627 22.7433C81.235 22.5295 80.9013 22.2086 80.6618 21.7809C80.4308 21.3531 80.3153 20.8184 80.3153 20.1767V16.2627H81.2264V20.0741C81.2264 20.7927 81.4018 21.336 81.7526 21.7039C82.1119 22.0632 82.6124 22.2429 83.254 22.2429C83.7246 22.2429 84.131 22.1487 84.4732 21.9605C84.824 21.7638 85.0892 21.4814 85.2688 21.1135C85.457 20.7457 85.5512 20.3051 85.5512 19.7917V16.2627H86.4623V23H85.5897V21.152L85.7308 21.4857C85.5169 21.9819 85.1833 22.3712 84.7298 22.6535C84.285 22.9273 83.7631 23.0642 83.1642 23.0642ZM93.0825 16.1985C93.6301 16.1985 94.1092 16.3054 94.5198 16.5193C94.9391 16.7246 95.2642 17.0412 95.4952 17.469C95.7347 17.8967 95.8545 18.4357 95.8545 19.0859V23H94.9433V19.1758C94.9433 18.4657 94.7637 17.9309 94.4044 17.5716C94.0536 17.2037 93.5574 17.0198 92.9157 17.0198C92.4366 17.0198 92.0174 17.1182 91.6581 17.315C91.3073 17.5032 91.0335 17.7812 90.8368 18.1491C90.6485 18.5084 90.5544 18.9448 90.5544 19.4581V23H89.6433V16.2627H90.5159V18.1106L90.3748 17.7641C90.5887 17.2765 90.9309 16.8958 91.4014 16.622C91.872 16.3397 92.4323 16.1985 93.0825 16.1985ZM103.179 23V21.5114L103.141 21.2675V18.7779C103.141 18.2047 102.978 17.7641 102.653 17.4561C102.337 17.1481 101.862 16.9941 101.229 16.9941C100.792 16.9941 100.377 17.0669 99.9839 17.2123C99.5904 17.3577 99.2567 17.5502 98.9829 17.7898L98.5723 17.1096C98.9145 16.8188 99.3252 16.5963 99.8043 16.4423C100.283 16.2798 100.788 16.1985 101.319 16.1985C102.191 16.1985 102.863 16.4167 103.333 16.853C103.812 17.2807 104.052 17.9352 104.052 18.8164V23H103.179ZM100.857 23.0642C100.352 23.0642 99.9112 22.9829 99.5348 22.8203C99.1669 22.6492 98.8846 22.4182 98.6878 22.1274C98.491 21.8279 98.3926 21.4857 98.3926 21.1007C98.3926 20.7499 98.4739 20.4334 98.6364 20.1511C98.8076 19.8602 99.0813 19.6292 99.4578 19.4581C99.8428 19.2784 100.356 19.1886 100.998 19.1886H103.321V19.8687H101.023C100.373 19.8687 99.9198 19.9842 99.6631 20.2152C99.415 20.4462 99.2909 20.7328 99.2909 21.075C99.2909 21.46 99.4407 21.768 99.7401 21.999C100.04 22.23 100.459 22.3455 100.998 22.3455C101.511 22.3455 101.952 22.23 102.32 21.999C102.696 21.7595 102.97 21.4173 103.141 20.9724L103.346 21.6012C103.175 22.0461 102.876 22.4011 102.448 22.6663C102.029 22.9316 101.498 23.0642 100.857 23.0642ZM113.543 23.077C112.961 23.077 112.443 22.9829 111.99 22.7947C111.537 22.5979 111.177 22.3284 110.912 21.9862C110.655 21.644 110.527 21.2462 110.527 20.7927C110.527 20.4077 110.613 20.057 110.784 19.7404C110.955 19.4153 111.229 19.0988 111.605 18.7908C111.99 18.4742 112.499 18.1448 113.132 17.8026C113.671 17.5032 114.09 17.2465 114.39 17.0326C114.698 16.8102 114.916 16.6006 115.044 16.4038C115.173 16.1985 115.237 15.9803 115.237 15.7493C115.237 15.4157 115.121 15.1462 114.89 14.9409C114.668 14.7355 114.347 14.6329 113.928 14.6329C113.474 14.6329 113.124 14.7484 112.876 14.9794C112.627 15.2018 112.503 15.4927 112.503 15.852C112.503 16.0317 112.529 16.2028 112.58 16.3653C112.64 16.5279 112.747 16.7075 112.901 16.9043C113.064 17.1011 113.286 17.3492 113.568 17.6486L118.317 22.538L117.791 23.1412L112.837 18.0464C112.538 17.7299 112.298 17.4561 112.118 17.2251C111.947 16.9856 111.827 16.7589 111.759 16.545C111.691 16.3311 111.656 16.1044 111.656 15.8648C111.656 15.4798 111.746 15.1462 111.926 14.8639C112.114 14.573 112.379 14.3505 112.722 14.1965C113.064 14.034 113.466 13.9527 113.928 13.9527C114.347 13.9527 114.711 14.0254 115.019 14.1709C115.335 14.3078 115.579 14.5088 115.75 14.774C115.93 15.0392 116.02 15.3601 116.02 15.7365C116.02 16.0616 115.938 16.3653 115.776 16.6476C115.622 16.93 115.365 17.208 115.006 17.4818C114.646 17.747 114.159 18.0464 113.543 18.3801C113.004 18.6795 112.576 18.9533 112.26 19.2014C111.952 19.4495 111.733 19.6934 111.605 19.9329C111.477 20.1639 111.413 20.4206 111.413 20.7029C111.413 21.028 111.502 21.3146 111.682 21.5627C111.87 21.8022 112.127 21.9905 112.452 22.1274C112.786 22.2557 113.166 22.3198 113.594 22.3198C114.193 22.3198 114.728 22.1958 115.198 21.9477C115.669 21.6996 116.062 21.3231 116.379 20.8184C116.704 20.3136 116.939 19.6805 117.085 18.9191L117.816 19.1501C117.654 20.0056 117.376 20.7243 116.982 21.306C116.589 21.8878 116.101 22.3284 115.519 22.6278C114.937 22.9273 114.279 23.077 113.543 23.077ZM128.528 23.077C127.843 23.077 127.21 22.9658 126.628 22.7433C126.055 22.5123 125.555 22.1915 125.127 21.7809C124.708 21.3702 124.378 20.8868 124.139 20.3307C123.908 19.7746 123.792 19.1672 123.792 18.5084C123.792 17.8497 123.908 17.2422 124.139 16.6861C124.378 16.13 124.712 15.6467 125.14 15.236C125.567 14.8254 126.068 14.5088 126.641 14.2864C127.223 14.0554 127.856 13.9399 128.54 13.9399C129.225 13.9399 129.849 14.0468 130.414 14.2607C130.987 14.4746 131.475 14.7997 131.877 15.236L131.287 15.8392C130.91 15.4627 130.495 15.1932 130.042 15.0307C129.588 14.8681 129.101 14.7869 128.579 14.7869C128.023 14.7869 127.509 14.881 127.039 15.0692C126.577 15.2488 126.171 15.5098 125.82 15.852C125.478 16.1857 125.208 16.5792 125.011 17.0326C124.823 17.4775 124.729 17.9694 124.729 18.5084C124.729 19.0389 124.823 19.5308 125.011 19.9842C125.208 20.4377 125.478 20.8355 125.82 21.1777C126.171 21.5114 126.577 21.7723 127.039 21.9605C127.509 22.1402 128.018 22.23 128.566 22.23C129.079 22.23 129.563 22.153 130.016 21.999C130.478 21.845 130.902 21.5841 131.287 21.2162L131.826 21.9349C131.398 22.3113 130.897 22.5979 130.324 22.7947C129.751 22.9829 129.152 23.077 128.528 23.077ZM130.914 21.8194V18.5084H131.826V21.9349L130.914 21.8194ZM139.185 23V21.5114L139.146 21.2675V18.7779C139.146 18.2047 138.983 17.7641 138.658 17.4561C138.342 17.1481 137.867 16.9941 137.234 16.9941C136.798 16.9941 136.383 17.0669 135.989 17.2123C135.596 17.3577 135.262 17.5502 134.988 17.7898L134.577 17.1096C134.92 16.8188 135.33 16.5963 135.809 16.4423C136.289 16.2798 136.793 16.1985 137.324 16.1985C138.196 16.1985 138.868 16.4167 139.339 16.853C139.818 17.2807 140.057 17.9352 140.057 18.8164V23H139.185ZM136.862 23.0642C136.357 23.0642 135.916 22.9829 135.54 22.8203C135.172 22.6492 134.89 22.4182 134.693 22.1274C134.496 21.8279 134.398 21.4857 134.398 21.1007C134.398 20.7499 134.479 20.4334 134.642 20.1511C134.813 19.8602 135.087 19.6292 135.463 19.4581C135.848 19.2784 136.361 19.1886 137.003 19.1886H139.326V19.8687H137.029C136.378 19.8687 135.925 19.9842 135.668 20.2152C135.42 20.4462 135.296 20.7328 135.296 21.075C135.296 21.46 135.446 21.768 135.745 21.999C136.045 22.23 136.464 22.3455 137.003 22.3455C137.516 22.3455 137.957 22.23 138.325 21.999C138.701 21.7595 138.975 21.4173 139.146 20.9724L139.351 21.6012C139.18 22.0461 138.881 22.4011 138.453 22.6663C138.034 22.9316 137.503 23.0642 136.862 23.0642ZM146.651 23.0642C146.061 23.0642 145.531 22.9316 145.06 22.6663C144.59 22.3926 144.217 21.999 143.944 21.4857C143.67 20.9724 143.533 20.3521 143.533 19.6249C143.533 18.8891 143.67 18.2689 143.944 17.7641C144.226 17.2508 144.602 16.8615 145.073 16.5963C145.543 16.3311 146.07 16.1985 146.651 16.1985C147.293 16.1985 147.866 16.3439 148.371 16.6348C148.884 16.9171 149.286 17.315 149.577 17.8283C149.868 18.3416 150.014 18.9405 150.014 19.6249C150.014 20.3008 149.868 20.8997 149.577 21.4215C149.286 21.9349 148.884 22.337 148.371 22.6278C147.866 22.9187 147.293 23.0642 146.651 23.0642ZM143.174 23V13.4779H144.085V18.2518L143.956 19.6121L144.046 20.9724V23H143.174ZM146.587 22.2557C147.066 22.2557 147.494 22.1487 147.871 21.9349C148.247 21.7124 148.546 21.4044 148.769 21.0109C148.991 20.6088 149.102 20.1468 149.102 19.6249C149.102 19.0945 148.991 18.6325 148.769 18.2389C148.546 17.8454 148.247 17.5417 147.871 17.3278C147.494 17.1054 147.066 16.9941 146.587 16.9941C146.108 16.9941 145.676 17.1054 145.291 17.3278C144.915 17.5417 144.615 17.8454 144.393 18.2389C144.179 18.6325 144.072 19.0945 144.072 19.6249C144.072 20.1468 144.179 20.6088 144.393 21.0109C144.615 21.4044 144.915 21.7124 145.291 21.9349C145.676 22.1487 146.108 22.2557 146.587 22.2557ZM152.513 23V16.2627H153.385V18.0978L153.295 17.777C153.484 17.2636 153.8 16.8744 154.245 16.6091C154.69 16.3354 155.242 16.1985 155.901 16.1985V17.084C155.866 17.084 155.832 17.084 155.798 17.084C155.764 17.0754 155.729 17.0711 155.695 17.0711C154.985 17.0711 154.429 17.2893 154.027 17.7256C153.625 18.1534 153.424 18.7651 153.424 19.5607V23H152.513ZM158.205 23V16.2627H159.116V23H158.205ZM158.667 14.774C158.479 14.774 158.32 14.7099 158.192 14.5815C158.064 14.4532 157.999 14.2992 157.999 14.1195C157.999 13.9399 158.064 13.7902 158.192 13.6704C158.32 13.542 158.479 13.4779 158.667 13.4779C158.855 13.4779 159.013 13.5378 159.142 13.6575C159.27 13.7773 159.334 13.927 159.334 14.1067C159.334 14.2949 159.27 14.4532 159.142 14.5815C159.022 14.7099 158.864 14.774 158.667 14.774ZM165.155 23.0642C164.453 23.0642 163.837 22.9187 163.307 22.6278C162.776 22.3284 162.361 21.922 162.062 21.4087C161.762 20.8868 161.613 20.2922 161.613 19.6249C161.613 18.9576 161.754 18.3673 162.036 17.854C162.327 17.3406 162.721 16.9385 163.217 16.6476C163.722 16.3482 164.286 16.1985 164.911 16.1985C165.544 16.1985 166.104 16.3439 166.592 16.6348C167.088 16.9171 167.477 17.3192 167.76 17.8411C168.042 18.3544 168.183 18.949 168.183 19.6249C168.183 19.6677 168.179 19.7147 168.17 19.7661C168.17 19.8089 168.17 19.8559 168.17 19.9072H162.306V19.2271H167.683L167.323 19.4966C167.323 19.0089 167.216 18.5769 167.003 18.2004C166.797 17.8155 166.515 17.516 166.156 17.3021C165.796 17.0882 165.381 16.9813 164.911 16.9813C164.449 16.9813 164.034 17.0882 163.666 17.3021C163.298 17.516 163.011 17.8155 162.806 18.2004C162.601 18.5854 162.498 19.026 162.498 19.5222V19.6634C162.498 20.1767 162.609 20.6302 162.832 21.0237C163.063 21.4087 163.379 21.7124 163.781 21.9349C164.192 22.1487 164.658 22.2557 165.18 22.2557C165.591 22.2557 165.972 22.183 166.322 22.0375C166.682 21.8921 166.99 21.6696 167.246 21.3702L167.76 21.9605C167.46 22.3198 167.084 22.5936 166.63 22.7818C166.186 22.9701 165.694 23.0642 165.155 23.0642ZM170.679 23V13.4779H171.591V23H170.679Z" fill="white"/>
<line x1="53.5" y1="39.0128" x2="53.5" stroke="white"/>
</svg>
