<svg width="42" height="35" viewBox="0 0 42 35" fill="none" xmlns="http://www.w3.org/2000/svg">
<path d="M2 26.0903V2.00012C2 2.00012 14.9019 2.00012 15.809 2.00012C16.7162 2.00012 21.8568 3.2096 21.8568 8.95503C21.8568 14.7005 17.6233 16.4139 15.809 16.4139C13.9947 16.4139 2.40318 16.4139 2.40318 16.4139" stroke="white" stroke-width="2.2627" stroke-linecap="round"/>
<path d="M6.0318 11.9788V33.5491C6.0318 33.5491 13.3899 33.5491 16.5146 33.5491C19.6392 33.5491 23.6711 31.1541 23.6711 25.3846C23.6711 19.6152 18.9782 16.5551 15.305 16.5551C11.6318 16.5551 6.37154 16.5551 6.37154 16.5551" stroke="white" stroke-width="2.2627" stroke-linecap="round"/>
<path d="M39.8992 5.83027C36.2706 1.62199 29.0133 1.23942 23.1671 2.96099" stroke="white" stroke-width="2.2627" stroke-linecap="round"/>
<path d="M24.679 33.2467C31.2307 34.0531 36.2705 33.2467 40 29.7189V20.0425H28.2069" stroke="white" stroke-width="2.2627" stroke-linecap="round"/>
<path d="M39.9001 16.0106H28.4076" stroke="white" stroke-width="2.2627" stroke-linecap="round"/>
</svg>
