<svg width="124" height="69" viewBox="0 0 124 69" fill="none" xmlns="http://www.w3.org/2000/svg">
<rect width="123.917" height="69" rx="7.89278" fill="#EEEDED"/>
<path d="M66.0364 14.207L58.1437 24.7307L64.1422 32.7287L60.7746 35.2544C57.2176 30.5188 51.3033 22.626 51.3033 22.626L38.6748 39.4639H84.9791L66.0364 14.207Z" fill="#777777"/>
<path d="M40.4959 48.7623V41.8868H43.0693C43.6521 41.8868 44.153 41.9818 44.5721 42.1717C44.9912 42.355 45.3121 42.6235 45.5347 42.9771C45.7639 43.3241 45.8785 43.7465 45.8785 44.2441C45.8785 44.7287 45.7639 45.1478 45.5347 45.5014C45.3121 45.8484 44.9912 46.1169 44.5721 46.3068C44.153 46.4967 43.6521 46.5916 43.0693 46.5916H40.8987L41.2228 46.2479V48.7623H40.4959ZM41.2228 46.3068L40.8987 45.9532H43.0497C43.7372 45.9532 44.2578 45.8059 44.6114 45.5112C44.9716 45.21 45.1516 44.7876 45.1516 44.2441C45.1516 43.6941 44.9716 43.2685 44.6114 42.9673C44.2578 42.6661 43.7372 42.5154 43.0497 42.5154H40.8987L41.2228 42.1717V46.3068ZM47.6692 48.7623V43.6057H48.3371V45.0103L48.2683 44.7647C48.4124 44.3718 48.6547 44.0739 48.9952 43.8709C49.3357 43.6614 49.758 43.5566 50.2622 43.5566V44.2343C50.236 44.2343 50.2098 44.2343 50.1836 44.2343C50.1574 44.2278 50.1312 44.2245 50.1051 44.2245C49.5616 44.2245 49.1359 44.3915 48.8282 44.7254C48.5204 45.0528 48.3665 45.521 48.3665 46.13V48.7623H47.6692ZM54.1682 48.8114C53.6312 48.8114 53.1598 48.7001 52.7538 48.4775C52.3478 48.2483 52.0302 47.9373 51.8011 47.5444C51.5719 47.1449 51.4573 46.6899 51.4573 46.1791C51.4573 45.6684 51.5653 45.2165 51.7814 44.8236C52.0041 44.4308 52.3053 44.123 52.6851 43.9004C53.0714 43.6712 53.5036 43.5566 53.9816 43.5566C54.4661 43.5566 54.895 43.6679 55.2683 43.8905C55.6481 44.1066 55.946 44.4144 56.1621 44.8138C56.3782 45.2067 56.4862 45.6618 56.4862 46.1791C56.4862 46.2118 56.4829 46.2479 56.4764 46.2871C56.4764 46.3199 56.4764 46.3559 56.4764 46.3952H51.9877V45.8746H56.1032L55.8281 46.0809C55.8281 45.7076 55.7463 45.377 55.5826 45.0888C55.4254 44.7942 55.2093 44.565 54.9343 44.4013C54.6593 44.2376 54.3417 44.1557 53.9816 44.1557C53.628 44.1557 53.3104 44.2376 53.0288 44.4013C52.7473 44.565 52.5279 44.7942 52.3707 45.0888C52.2136 45.3835 52.135 45.7207 52.135 46.1005V46.2086C52.135 46.6015 52.2201 46.9485 52.3904 47.2497C52.5672 47.5444 52.8095 47.7768 53.1172 47.9471C53.4315 48.1108 53.7884 48.1926 54.1878 48.1926C54.5021 48.1926 54.7935 48.137 55.062 48.0257C55.337 47.9143 55.5728 47.7441 55.7692 47.5149L56.1621 47.9667C55.9329 48.2417 55.6448 48.4513 55.2977 48.5953C54.9572 48.7394 54.5807 48.8114 54.1682 48.8114ZM59.6268 48.7623L57.3383 43.6057H58.0651L60.1671 48.3891H59.8233L61.9547 43.6057H62.6422L60.3439 48.7623H59.6268ZM64.1155 48.7623V43.6057H64.8128V48.7623H64.1155ZM64.4691 42.4663C64.325 42.4663 64.2039 42.4172 64.1057 42.319C64.0074 42.2208 63.9583 42.1029 63.9583 41.9654C63.9583 41.8279 64.0074 41.7133 64.1057 41.6216C64.2039 41.5234 64.325 41.4743 64.4691 41.4743C64.6131 41.4743 64.7343 41.5201 64.8325 41.6118C64.9307 41.7035 64.9798 41.8181 64.9798 41.9556C64.9798 42.0996 64.9307 42.2208 64.8325 42.319C64.7408 42.4172 64.6197 42.4663 64.4691 42.4663ZM69.4347 48.8114C68.8978 48.8114 68.4263 48.7001 68.0203 48.4775C67.6143 48.2483 67.2967 47.9373 67.0676 47.5444C66.8384 47.1449 66.7238 46.6899 66.7238 46.1791C66.7238 45.6684 66.8318 45.2165 67.0479 44.8236C67.2706 44.4308 67.5718 44.123 67.9516 43.9004C68.3379 43.6712 68.7701 43.5566 69.2481 43.5566C69.7326 43.5566 70.1615 43.6679 70.5348 43.8905C70.9146 44.1066 71.2125 44.4144 71.4286 44.8138C71.6447 45.2067 71.7527 45.6618 71.7527 46.1791C71.7527 46.2118 71.7494 46.2479 71.7429 46.2871C71.7429 46.3199 71.7429 46.3559 71.7429 46.3952H67.2542V45.8746H71.3697L71.0946 46.0809C71.0946 45.7076 71.0128 45.377 70.8491 45.0888C70.6919 44.7942 70.4758 44.565 70.2008 44.4013C69.9258 44.2376 69.6082 44.1557 69.2481 44.1557C68.8945 44.1557 68.5769 44.2376 68.2953 44.4013C68.0138 44.565 67.7944 44.7942 67.6372 45.0888C67.4801 45.3835 67.4015 45.7207 67.4015 46.1005V46.2086C67.4015 46.6015 67.4866 46.9485 67.6569 47.2497C67.8337 47.5444 68.076 47.7768 68.3837 47.9471C68.698 48.1108 69.0549 48.1926 69.4543 48.1926C69.7686 48.1926 70.06 48.137 70.3285 48.0257C70.6035 47.9143 70.8393 47.7441 71.0357 47.5149L71.4286 47.9667C71.1994 48.2417 70.9113 48.4513 70.5642 48.5953C70.2237 48.7394 69.8472 48.8114 69.4347 48.8114ZM74.6183 48.7623L72.6735 43.6057H73.3414L75.1094 48.3891H74.8049L76.622 43.6057H77.2212L79.0186 48.3891H78.7142L80.5116 43.6057H81.15L79.1954 48.7623H78.5374L76.8087 44.2638H77.0149L75.2764 48.7623H74.6183Z" fill="black" fill-opacity="0.5"/>
</svg>
